<?xml version="1.0" encoding="UTF-8"?> <svg xmlns="http://www.w3.org/2000/svg" width="184" height="38" viewBox="0 0 184 38" fill="none"><g clip-path="url(#clip0)"><path d="M13.8656 30.647V33.6896C13.8656 34.1733 13.9786 34.2456 14.2363 34.2818V34.4807H12.333V34.2818C12.5319 34.2456 12.6404 34.1688 12.6404 33.6896V26.6144C12.6404 26.1623 12.5274 26.0583 12.333 26.0222V25.8232H14.2363V26.0222C13.9786 26.0583 13.8656 26.1442 13.8656 26.6144V29.6343H17.6495V26.6144C17.6495 26.1623 17.5275 26.0583 17.2653 26.0222V25.8232H19.1686V26.0222C18.9696 26.0583 18.8611 26.1442 18.8611 26.6144V33.6896C18.8611 34.1733 18.9742 34.2456 19.1686 34.2818V34.4807H17.2653V34.2818C17.523 34.2456 17.6495 34.1688 17.6495 33.6896V30.647H13.8656Z" fill="white"></path><path d="M20.6288 34.4807V34.3451C20.7164 34.2935 20.7858 34.2162 20.8277 34.1236L23.1153 27.0348C23.2014 26.8124 23.2591 26.58 23.2871 26.3431C23.2871 26.1578 23.2147 26.0448 23.0384 26.0222V25.8232H25.326V26.0222C25.1768 26.0583 25.1271 26.194 25.1271 26.3431C25.1543 26.5816 25.2168 26.8147 25.3124 27.0348L27.6633 33.8885C27.7492 34.1236 27.8125 34.2366 27.9617 34.2863V34.4853H26.2302V34.2863C26.2953 34.2714 26.3536 34.2354 26.3961 34.1839C26.4387 34.1324 26.463 34.0683 26.4653 34.0015C26.4653 33.7438 25.8956 32.3333 25.8097 31.9716H22.5683C22.4191 32.4915 21.9625 33.7257 21.9625 33.9021C21.9452 33.9945 21.9606 34.0901 22.006 34.1726C22.0513 34.255 22.1238 34.3192 22.2111 34.3541V34.5033L20.6288 34.4807ZM22.8893 30.9816H25.4752L24.1777 26.9354H24.1189L22.8938 30.9816H22.8893Z" fill="white"></path><path d="M34.3723 25.8228C34.8244 25.8228 34.9419 25.7505 34.9645 25.5244H35.1634V27.1429H34.969C34.9464 26.9214 34.7701 26.8355 34.3768 26.8355H32.5323V33.6756C32.5323 34.1593 32.6543 34.2316 33.0522 34.2678V34.4667H30.7917V34.2678C31.1896 34.2316 31.2981 34.1548 31.2981 33.6756V26.849H29.4535C29.0693 26.849 28.8975 26.9349 28.8613 27.1565H28.6624V25.5244H28.8613C28.8975 25.7459 28.9969 25.8228 29.4535 25.8228H34.3723Z" fill="white"></path><path d="M36.583 27.0981C36.4379 26.6478 36.1343 26.2655 35.7285 26.0222V25.8232H37.7584V25.995C37.5957 26.0176 37.5007 26.0945 37.5007 26.2166C37.5181 26.3591 37.5693 26.4955 37.6499 26.6144L39.4176 30.2763H39.4538L41.1355 26.5918C41.187 26.4913 41.2206 26.3827 41.235 26.2708C41.235 26.1081 40.9999 26.0222 40.8507 26.0222V25.8232H42.8173V26.0222C42.7163 26.0396 42.6216 26.0829 42.5423 26.1478C42.4631 26.2128 42.402 26.2972 42.3652 26.3929L39.1373 33.5178C39.0515 33.6674 38.9933 33.8313 38.9655 34.0015C38.9662 34.0687 38.9899 34.1336 39.0327 34.1855C39.0755 34.2373 39.1347 34.2729 39.2006 34.2863V34.4853H37.1617V34.2863C37.4691 34.2502 37.6951 34.1236 37.9031 33.667L38.8073 31.7004L36.583 27.0981Z" fill="white"></path><path d="M44.264 26.6144C44.264 26.1623 44.1509 26.0583 43.9159 26.0222V25.8232H47.4648C49.4811 25.8232 50.2496 27.0122 50.2496 28.1379C50.2496 30.0412 49.1872 30.7827 46.9494 30.7827H45.4756V33.6896C45.4756 34.1733 45.5977 34.2456 45.8599 34.2818V34.4807H43.9566V34.2818C44.1555 34.2456 44.264 34.1688 44.264 33.6896V26.6144ZM45.4756 29.7564H47.2433C48.4549 29.7564 49.0516 29.2139 49.0516 28.2962C49.0516 27.3784 48.4458 26.8495 47.4557 26.8495H45.4891V29.7564H45.4756Z" fill="white"></path><path d="M51.3979 34.4807V34.3451C51.4855 34.2935 51.555 34.2162 51.5969 34.1236L53.8844 27.0348C53.9706 26.8124 54.0283 26.58 54.0562 26.3431C54.0562 26.1578 53.9839 26.0448 53.8076 26.0222V25.8232H56.0951V26.0222C55.9459 26.0583 55.8962 26.194 55.8962 26.3431C55.9235 26.5816 55.9859 26.8147 56.0816 27.0348L58.4324 33.8885C58.5183 34.1236 58.5816 34.2366 58.7308 34.2863V34.4853H56.9993V34.2863C57.0644 34.2714 57.1228 34.2354 57.1653 34.1839C57.2078 34.1324 57.2321 34.0683 57.2344 34.0015C57.2344 33.7438 56.6648 32.3333 56.5789 31.9716H53.3374C53.1882 32.4915 52.7316 33.7257 52.7316 33.9021C52.7135 33.9946 52.7285 34.0906 52.7739 34.1732C52.8194 34.2558 52.8924 34.3199 52.9803 34.3541V34.5033L51.3979 34.4807ZM53.6584 30.9816H56.2172L54.9197 26.9354H54.8835L53.6584 30.9816Z" fill="white"></path><path d="M60.0554 34.4807H59.6711V33.1561H59.8791C59.9017 33.355 59.9921 33.3912 60.0509 33.3912C60.5572 33.3912 61.163 32.6995 61.163 31.0901V26.6144C61.163 26.1623 61.05 26.0583 60.8556 26.0222V25.8232H66.7689V26.0222C66.57 26.0583 66.4615 26.1442 66.4615 26.6144V33.6896C66.4615 34.1733 66.5745 34.2456 66.7689 34.2818V34.4807H64.8656V34.2818C65.1278 34.2456 65.2499 34.1688 65.2499 33.6896V26.8495H62.2707V30.6109C62.2707 33.5042 61.2082 34.4807 60.0554 34.4807Z" fill="white"></path><path d="M72.3341 34.4807H68.835V34.2818C69.07 34.2456 69.1831 34.1597 69.1831 33.6896V26.6144C69.1831 26.1307 69.0701 26.0583 68.8757 26.0222V25.8232H70.779V26.0222C70.5168 26.0583 70.3947 26.1352 70.3947 26.6144V29.5213H72.203C74.4635 29.5213 75.3315 30.3893 75.3315 31.9942C75.3315 33.242 74.6036 34.4807 72.3251 34.4807H72.3341ZM72.3341 30.5476H70.3901V33.4726H72.4698C73.4598 33.4726 74.1289 32.9798 74.1289 32.0259C74.1289 31.072 73.5457 30.5657 72.3206 30.5657L72.3341 30.5476Z" fill="white"></path><path d="M78.5549 30.647V33.6896C78.5549 34.1733 78.6679 34.2456 78.9256 34.2818V34.4807H77.0133V34.2818C77.2122 34.2456 77.3207 34.1688 77.3207 33.6896V26.6144C77.3207 26.1623 77.2077 26.0583 77.0133 26.0222V25.8232H78.9166V26.0222C78.6589 26.0583 78.5459 26.1442 78.5459 26.6144V29.6343H82.3299V26.6144C82.3299 26.1623 82.2078 26.0583 81.9456 26.0222V25.8232H83.8489V26.0222C83.65 26.0583 83.5415 26.1442 83.5415 26.6144V33.6896C83.5415 34.1733 83.6545 34.2456 83.8489 34.2818V34.4807H81.9456V34.2818C82.2033 34.2456 82.3299 34.1688 82.3299 33.6896V30.647H78.5549Z" fill="white"></path><path d="M89.4231 34.4807H85.8064V34.2818C86.0415 34.2456 86.2585 34.1597 86.2585 33.6896V26.6144C86.2585 26.1307 86.0596 26.0583 85.8606 26.0222V25.8232H87.8905V26.0222C87.6283 26.0583 87.4701 26.1352 87.4701 26.6144V29.5213H89.2784C91.5389 29.5213 92.4069 30.3893 92.4069 31.9942C92.4069 33.242 91.679 34.4807 89.4005 34.4807H89.4231ZM89.4231 30.5476H87.4791V33.4726H89.5587C90.5488 33.4726 91.2179 32.9798 91.2179 32.0259C91.2179 31.072 90.6347 30.5657 89.4095 30.5657L89.4231 30.5476ZM92.9494 34.4807V34.2818C93.3472 34.2456 93.4015 34.1688 93.4015 33.6896V26.6144C93.4015 26.1623 93.3291 26.0583 92.9494 26.0222V25.8232H95.0968V26.0222C94.699 26.0583 94.6447 26.1442 94.6447 26.6144V33.6896C94.6447 34.1733 94.708 34.2456 95.0968 34.2818V34.4807H92.9494Z" fill="white"></path><path d="M97.2623 26.6139C97.2623 26.1619 97.1493 26.0579 96.9142 26.0217V25.8228H102.43C102.692 25.8228 102.85 25.7505 102.882 25.5244H103.081V27.2559H102.882C102.846 26.9349 102.624 26.849 102.29 26.849H98.4694V29.5073H101.227C101.548 29.5073 101.783 29.435 101.81 29.1366H102.009V30.945H101.81C101.783 30.5969 101.548 30.5245 101.227 30.5245H98.4694V33.4721H102.403C102.737 33.4721 102.972 33.3862 102.995 33.0879H103.194V34.7968H102.995C102.972 34.5888 102.737 34.4984 102.403 34.4984H96.9052V34.2995C97.1402 34.2633 97.2533 34.1864 97.2533 33.7072V26.6139H97.2623Z" fill="white"></path><path d="M110.608 26.8495V33.6896C110.608 34.1733 110.721 34.2456 110.979 34.2818V34.4807H109.075V34.2818C109.274 34.2456 109.383 34.1688 109.383 33.6896V26.6144C109.383 26.1623 109.27 26.0583 109.075 26.0222V25.8232H115.893V26.0222C115.694 26.0583 115.585 26.1442 115.585 26.6144V33.6896C115.585 34.1733 115.698 34.2456 115.893 34.2818V34.4807H113.99V34.2818C114.247 34.2456 114.374 34.1688 114.374 33.6896V26.8495H110.608Z" fill="white"></path><path d="M118.325 26.6144C118.325 26.1623 118.212 26.0583 117.977 26.0222V25.8232H121.526C123.542 25.8232 124.311 27.0122 124.311 28.1379C124.311 30.0412 123.248 30.7827 121.011 30.7827H119.537V33.6896C119.537 34.1733 119.659 34.2456 119.921 34.2818V34.4807H118.018V34.2818C118.217 34.2456 118.325 34.1688 118.325 33.6896V26.6144ZM119.537 29.7564H121.318C122.53 29.7564 123.126 29.2139 123.126 28.2962C123.126 27.3784 122.52 26.8495 121.53 26.8495H119.564V29.7564H119.537Z" fill="white"></path><path d="M129.591 34.58C127.218 34.58 125.757 32.6496 125.757 30.1541C125.757 27.6586 127.218 25.7236 129.591 25.7236C131.965 25.7236 133.425 27.6541 133.425 30.1541C133.425 32.6541 131.951 34.58 129.591 34.58ZM126.969 30.1541C126.969 32.2066 127.923 33.5674 129.591 33.5674C131.259 33.5674 132.2 32.2111 132.2 30.1541C132.2 28.0971 131.246 26.7544 129.591 26.7544C127.937 26.7544 126.969 28.1107 126.969 30.1541Z" fill="white"></path><path d="M142.155 35.0282C142.105 34.6214 141.92 34.4857 141.449 34.4857H135.03C134.578 34.4857 134.374 34.6214 134.325 35.0282H134.126V33.4731H134.953C136.165 31.7416 136.463 29.7976 136.463 27.302V26.633C136.463 26.1809 136.35 26.0769 136.155 26.0407V25.8418H141.581V26.0407C141.382 26.0769 141.273 26.1628 141.273 26.633V33.4731H142.349V35.0418L142.155 35.0282ZM140.066 26.8545H137.593V27.0172C137.593 29.6258 137.272 32.0625 136.305 33.4595H140.066V26.85V26.8545Z" fill="white"></path><path d="M143.701 27.0981C143.555 26.648 143.252 26.2658 142.846 26.0222V25.8232H144.876V25.995C144.714 26.0176 144.619 26.0945 144.619 26.2166C144.636 26.3591 144.687 26.4955 144.768 26.6144L146.535 30.2763H146.572L148.253 26.5918C148.305 26.4913 148.338 26.3827 148.353 26.2708C148.353 26.1081 148.118 26.0222 147.969 26.0222V25.8232H149.935V26.0222C149.834 26.0396 149.739 26.0829 149.66 26.1478C149.581 26.2128 149.52 26.2972 149.483 26.3929L146.255 33.5178C146.169 33.6674 146.111 33.8313 146.083 34.0015C146.084 34.0687 146.108 34.1336 146.151 34.1855C146.193 34.2373 146.253 34.2729 146.318 34.2863V34.4853H144.28V34.2863C144.587 34.2502 144.813 34.1236 145.021 33.667L145.925 31.7004L143.701 27.0981Z" fill="white"></path><path d="M152.987 25.8238V26.0227C152.824 26.0724 152.666 26.1447 152.666 26.6149V29.7795L155.609 26.5245C155.705 26.4436 155.767 26.3286 155.781 26.2035C155.781 26.0905 155.668 26.0317 155.559 26.0046V25.8057H157.612V26.0046C157.441 26.0721 157.295 26.1885 157.191 26.3391L154.569 29.2189L157.575 33.9794C157.63 34.0708 157.709 34.1456 157.803 34.1957C157.897 34.2459 158.003 34.2696 158.109 34.2642V34.4632H155.984V34.314C156.183 34.2642 156.233 34.1783 156.233 34.0292C156.167 33.8009 156.058 33.5876 155.912 33.4008L153.782 30.0372L152.67 31.2624V33.6765C152.67 34.1603 152.783 34.2326 152.991 34.2688V34.4677H151.138V34.2688C151.337 34.2326 151.445 34.1557 151.445 33.6765V26.6149C151.445 26.1628 151.346 26.0588 151.147 26.0227V25.8238H152.987Z" fill="white"></path><path d="M164.167 25.8228C164.619 25.8228 164.737 25.7505 164.759 25.5244H164.958V27.1429H164.759C164.737 26.9214 164.56 26.8355 164.167 26.8355H162.322V33.6756C162.322 34.1593 162.444 34.2316 162.842 34.2678V34.4667H160.582V34.2678C160.98 34.2316 161.088 34.1548 161.088 33.6756V26.849H159.244C158.859 26.849 158.688 26.9349 158.651 27.1565H158.453V25.5244H158.651C158.688 25.7459 158.787 25.8228 159.244 25.8228H164.167Z" fill="white"></path><path d="M169.795 34.4807H166.179V34.2818C166.414 34.2456 166.631 34.1597 166.631 33.6896V26.6144C166.631 26.1307 166.432 26.0583 166.233 26.0222V25.8232H168.263V26.0222C168.005 26.0583 167.842 26.1352 167.842 26.6144V29.5213H169.651C171.911 29.5213 172.779 30.3893 172.779 31.9942C172.779 33.242 172.051 34.4807 169.773 34.4807H169.795ZM169.795 30.5476H167.851V33.4726H169.931C170.921 33.4726 171.59 32.9798 171.59 32.0259C171.59 31.072 171.007 30.5657 169.782 30.5657L169.795 30.5476ZM173.322 34.4807V34.2818C173.72 34.2456 173.774 34.1688 173.774 33.6896V26.6144C173.774 26.1623 173.701 26.0583 173.322 26.0222V25.8232H175.46V26.0222C175.062 26.0583 175.008 26.1442 175.008 26.6144V33.6896C175.008 34.1733 175.071 34.2456 175.46 34.2818V34.4807H173.322Z" fill="white"></path><path d="M29.9961 2.38679C30.266 2.38882 30.5355 2.36459 30.8008 2.31445V5.33893C30.195 4.46187 29.3451 4.46639 27.6 4.46639L24.5348 4.43475V17.0118C24.4844 17.4833 24.564 17.9595 24.7648 18.389C24.9656 18.8185 25.28 19.1849 25.6741 19.4486H21.221C21.5866 19.1642 21.8732 18.791 22.0536 18.3644C22.2341 17.9379 22.3023 17.4722 22.2518 17.0118V4.80546C22.3023 4.34508 22.2341 3.87943 22.0536 3.45288C21.8732 3.02633 21.5866 2.65309 21.221 2.3687L29.9961 2.38679Z" fill="white"></path><path d="M32.2565 19.4578C33.2647 18.6757 33.2873 17.8258 33.2873 17.0211V4.81469C33.3378 4.35431 33.2696 3.88866 33.0891 3.46211C32.9087 3.03556 32.622 2.66232 32.2565 2.37793H37.8082C39.0378 2.37793 43.3824 2.40053 43.3824 6.89881C43.3824 10.1403 40.8326 11.7723 38.3235 11.7723C37.6772 11.7581 37.0363 11.6515 36.4202 11.4559C38.2286 11.3835 40.8055 10.4568 40.8055 7.38707C40.8055 5.38884 39.5532 4.19533 37.4465 4.19533C36.8122 4.20313 36.181 4.28506 35.5658 4.43945V16.6458C35.5658 17.428 35.6788 18.8159 36.9537 19.4714L32.2565 19.4578Z" fill="white"></path><path d="M61.9497 10.9176C61.9497 15.4747 58.993 19.8147 53.36 19.8147C47.4829 19.8147 44.7703 15.2079 44.7703 10.9176C44.7703 6.36056 47.727 2.02051 53.36 2.02051C59.2372 2.02051 61.9497 6.62729 61.9497 10.9176ZM47.3337 10.5288C47.3337 14.7694 49.775 17.8165 53.3103 17.8165C56.1991 17.8165 59.3773 15.7911 59.3773 11.3064C59.3773 7.06582 56.936 4.01874 53.4007 4.01874C50.5119 4.01874 47.3337 6.0441 47.3337 10.5288Z" fill="white"></path><path d="M67.3567 2.38672C66.9911 2.6711 66.7045 3.04435 66.524 3.4709C66.3436 3.89745 66.2754 4.36309 66.3259 4.82347V17.0299C66.2754 17.4902 66.3436 17.9559 66.524 18.3824C66.7045 18.809 66.9911 19.1822 67.3567 19.4666H62.9985C63.3641 19.1822 63.6507 18.809 63.8312 18.3824C64.0116 17.9559 64.0798 17.4902 64.0293 17.0299V4.82347C64.0798 4.36309 64.0116 3.89745 63.8312 3.4709C63.6507 3.04435 63.3641 2.6711 62.9985 2.38672H67.3567ZM70.2681 5.48352C70.8739 4.60647 71.1723 4.06849 71.1723 3.58023C71.1596 3.32686 71.078 3.08177 70.9361 2.87142C70.7943 2.66108 70.5977 2.49348 70.3676 2.38672H74.6669L69.2419 10.0722L71.8143 13.7793C73.8532 16.727 74.9789 18.2415 76.941 19.4576L74.5449 19.5796C72.7772 19.6791 71.8821 18.1917 70.7609 16.51L66.778 10.6328L70.2681 5.51517V5.48352Z" fill="white"></path><path d="M92.1131 10.9176C92.1131 15.4747 89.1564 19.8147 83.5234 19.8147C77.6462 19.8147 74.9337 15.2079 74.9337 10.9176C74.9337 6.36056 77.8904 2.02051 83.5234 2.02051C89.4005 2.02051 92.1131 6.62729 92.1131 10.9176ZM77.497 10.5288C77.497 14.7694 79.9383 17.8165 83.4736 17.8165C86.3625 17.8165 89.5407 15.7911 89.5407 11.3064C89.5407 7.06582 87.0994 4.01874 83.5641 4.01874C80.6752 4.01874 77.497 6.0441 77.497 10.5288Z" fill="white"></path><path d="M98.5236 2.38672L103.045 15.1356L107.253 4.09109C107.46 3.53918 107.611 2.96831 107.706 2.38672H111.58C111.223 2.63085 110.82 3.06937 110.82 4.19507C110.82 4.38947 110.82 4.61099 110.866 4.85512L112.321 17.2875C112.33 17.7085 112.433 18.1221 112.623 18.4977C112.814 18.8733 113.086 19.2014 113.42 19.4576H109.112C109.411 19.243 109.651 18.9557 109.81 18.6228C109.968 18.2898 110.039 17.9222 110.016 17.5543C110.007 17.1716 109.977 16.7898 109.925 16.4105L108.741 4.95458L103.212 19.7017L102.583 19.1185C102.038 18.535 101.633 17.8345 101.399 17.0705L97.0137 5.00431L95.5127 16.6094C95.4604 16.9643 95.4302 17.3222 95.4223 17.6809C95.3937 18.0417 95.4718 18.403 95.6471 18.7198C95.8223 19.0365 96.0869 19.2947 96.4079 19.4621H92.5109C93.224 18.7037 93.6508 17.7206 93.7179 16.6818L95.2867 4.92745C95.3439 4.57264 95.3816 4.21495 95.3997 3.85601C95.409 3.56014 95.3367 3.26743 95.1908 3.00989C95.0449 2.75234 94.8309 2.53988 94.5724 2.39576L98.5236 2.38672Z" fill="white"></path><path d="M115.631 4.82348C115.631 4.01876 115.631 3.16431 114.6 2.38672H128.949C127.941 3.16883 127.918 4.01876 127.918 4.82348V17.0299C127.918 17.8346 127.918 18.689 128.949 19.4666H124.605C125.613 18.6845 125.635 17.8346 125.635 17.0299V4.37139H117.914V17.0299C117.914 17.8346 117.914 18.689 118.944 19.4666H114.604C115.613 18.6845 115.635 17.8346 115.635 17.0299V4.82348H115.631Z" fill="white"></path><path d="M143.136 17.0124C143.085 17.4728 143.153 17.9384 143.334 18.365C143.514 18.7915 143.801 19.1648 144.167 19.4491H139.822C140.188 19.1648 140.474 18.7915 140.655 18.365C140.835 17.9384 140.903 17.4728 140.853 17.0124V4.35392H136.287L136.241 7.30154C136.083 18.1517 133.199 19.5079 131.07 19.5079C130.125 19.5079 130.016 18.4229 130.165 17.6996C130.182 17.5659 130.239 17.4406 130.33 17.341C130.421 17.2414 130.54 17.1724 130.672 17.1435L131.183 17.0531C133.927 16.5739 134.316 10.3531 134.316 6.45161C134.316 4.15952 133.891 2.86655 132.679 2.38281H144.162C143.131 3.18753 143.109 4.04198 143.109 4.81957V17.026L143.136 17.0124Z" fill="white"></path><path d="M154.926 2.38723V5.19018C154.501 4.65219 153.895 4.286 152.575 4.31312L149.555 4.38546V9.25897H152.779C153.049 9.26095 153.318 9.23672 153.583 9.18664V11.8449C153.367 11.6168 153.102 11.4412 152.807 11.3315C152.512 11.2218 152.196 11.1809 151.884 11.212H149.555V17.3287C150.522 17.4348 151.494 17.4922 152.467 17.5005C153.845 17.5268 155.215 17.289 156.504 16.7998L156.007 19.449H146.246C146.612 19.1647 146.898 18.7914 147.079 18.3649C147.259 17.9383 147.327 17.4727 147.277 17.0123V4.8059C147.327 4.34552 147.259 3.87987 147.079 3.45332C146.898 3.02677 146.612 2.65353 146.246 2.36914L154.926 2.38723Z" fill="white"></path><path d="M162.82 2.38697C162.454 2.67136 162.167 3.04461 161.987 3.47116C161.807 3.8977 161.738 4.36335 161.789 4.82373V17.0301C161.74 17.489 161.809 17.9529 161.989 18.3777C162.17 18.8025 162.456 19.1743 162.82 19.4578H158.48C158.845 19.1734 159.132 18.8002 159.312 18.3736C159.493 17.9471 159.561 17.4815 159.51 17.0211V4.81469C159.561 4.35431 159.493 3.88866 159.312 3.46211C159.132 3.03556 158.845 2.66232 158.48 2.37793L162.82 2.38697ZM165.731 5.48377C166.337 4.60672 166.635 4.06874 166.635 3.58049C166.623 3.32711 166.541 3.08202 166.399 2.87168C166.257 2.66133 166.061 2.49373 165.831 2.38697H170.144L164.718 10.0725L167.291 13.7796C169.33 16.7272 170.455 18.2417 172.418 19.4578L170.021 19.5799C168.254 19.6794 167.359 18.192 166.237 16.5102L162.255 10.6331L165.745 5.51542L165.731 5.48377Z" fill="white"></path><path d="M183.191 5.65544C181.92 4.67231 180.367 4.12531 178.76 4.09574C175.826 4.09574 172.883 6.21603 172.883 10.3843C172.883 13.9422 174.764 17.7443 179.285 17.7443C182.373 17.7443 182.585 16.813 183.259 16.2027L183.024 19.2045C181.765 19.6446 180.437 19.8514 179.104 19.8148C172.39 19.8148 170.306 14.8193 170.306 11.0398C170.306 6.3607 173.349 1.99805 179.014 1.99805C179.997 1.99915 180.976 2.12987 181.925 2.38684C182.336 2.50362 182.754 2.59273 183.177 2.65357V5.62832L183.191 5.65544Z" fill="white"></path><path d="M7.21984 17.9659C7.23504 17.5642 7.31914 17.1681 7.46849 16.795L7.88893 15.6376L8.0743 15.1403L6.34732 14.8193L5.76863 16.5011C5.58436 17.0317 5.34972 17.5433 5.0679 18.0292C4.74457 18.5927 4.30358 19.08 3.77493 19.4578H8.00647C7.7635 19.2936 7.56492 19.0719 7.42845 18.8124C7.29198 18.5529 7.22188 18.2636 7.22437 17.9704L7.21984 17.9659Z" fill="white"></path><path d="M15.9271 19.5796H20.7418C20.261 19.3044 19.8484 18.9242 19.5347 18.4675C19.5016 18.3845 19.4592 18.3057 19.4082 18.2324L19.3223 18.0696L13.3366 2.42286H9.31303C9.44648 2.41423 9.58022 2.43414 9.70535 2.4813C9.83049 2.52845 9.94412 2.60176 10.0387 2.69632C10.1332 2.79088 10.2066 2.90451 10.2537 3.02965C10.3009 3.15478 10.3208 3.28853 10.3122 3.42197C10.3076 3.63965 10.2615 3.85445 10.1765 4.0549L8.56707 8.52153L10.181 9.45283L11.8764 4.73303L15.6242 15.2486C15.4524 15.1039 15.2896 14.9638 15.1269 14.8372C15.0824 14.8055 15.0464 14.7633 15.022 14.7145C14.9975 14.6656 14.9854 14.6115 14.9867 14.5569C14.9841 14.0084 14.839 13.4699 14.5656 12.9944C14.2921 12.5189 13.8998 12.1226 13.427 11.8444C13.3262 11.7735 13.2324 11.6933 13.1467 11.6048L11.7543 10.2485C11.7087 10.209 11.6603 10.1728 11.6096 10.14L11.578 10.1717L11.7407 10.3706C12.1341 10.8227 12.5319 11.2748 12.9207 11.7675C12.9851 11.8619 13.0254 11.9705 13.0382 12.084C13.0744 12.2874 13.0699 12.4999 13.1151 12.6988C13.1784 12.9836 13.2688 13.2594 13.3547 13.5533C13.2677 13.4935 13.1772 13.4391 13.0835 13.3905C13.0295 13.3677 12.9831 13.3301 12.9496 13.2822C12.916 13.2342 12.8966 13.1777 12.8936 13.1193C12.8268 12.5606 12.6124 12.0299 12.2722 11.5817C11.9321 11.1335 11.4787 10.7841 10.9586 10.5695C10.8958 10.5377 10.8354 10.5015 10.7778 10.461L9.02369 9.33077C8.96269 9.29731 8.89922 9.2686 8.83382 9.24488C8.86576 9.31408 8.91573 9.37341 8.97849 9.41666C9.46222 9.79642 9.94594 10.1717 10.4297 10.5559C10.4897 10.6006 10.5327 10.6644 10.5517 10.7368C10.6318 11.3304 10.8621 11.8937 11.2208 12.3733C11.2208 12.3733 11.2208 12.4005 11.2208 12.414H11.1937C11.0398 12.3553 10.8889 12.2889 10.7416 12.2151C10.6633 12.1725 10.6025 12.1037 10.5698 12.0207C10.4547 11.5787 10.2467 11.1663 9.9599 10.8109C9.67305 10.4554 9.31384 10.1651 8.90614 9.95918C8.41788 9.71957 7.93415 9.47996 7.43685 9.26748C6.93956 9.055 6.53268 8.93293 6.08059 8.77018C5.99458 8.74589 5.90698 8.72776 5.8184 8.71593C5.90116 8.79251 5.99583 8.8551 6.09869 8.90128C6.61859 9.1635 7.143 9.42119 7.6629 9.69244C7.74959 9.74748 7.81498 9.83039 7.84827 9.92753C8.00387 10.4277 8.2626 10.8898 8.60777 11.2838C8.68463 11.3697 8.77052 11.4465 8.88807 11.5686C8.69367 11.5189 8.55805 11.4691 8.41338 11.4465C8.35373 11.4386 8.2975 11.414 8.25113 11.3757C8.20477 11.3373 8.17013 11.2867 8.15116 11.2295C7.96595 10.7532 7.66812 10.3287 7.28313 9.99256C6.89814 9.65638 6.43743 9.41845 5.94044 9.29912C5.29396 9.14993 4.63845 9.02335 3.98292 8.90581C3.68002 8.85156 3.3726 8.84704 3.07874 8.81539V8.87416L3.27766 8.92842C3.82921 9.07308 4.38527 9.21775 4.93682 9.3579C4.99961 9.3715 5.05824 9.39993 5.10779 9.44083C5.15734 9.48173 5.19638 9.5339 5.22164 9.59298C5.50317 10.1906 5.96269 10.6865 6.5372 11.0125C6.55229 11.0228 6.56598 11.0349 6.5779 11.0487C6.31746 11.0495 6.05993 10.9939 5.82292 10.886C5.33645 10.5664 4.77299 10.3835 4.19158 10.3565C3.61017 10.3294 3.03216 10.4592 2.51813 10.7322C2.46141 10.7614 2.40036 10.7813 2.33731 10.791C1.83549 10.8588 1.32914 10.9086 0.827323 10.9854C0.488257 11.0397 0.158245 11.1301 -0.1763 11.2024V11.2612H-0.00902954L2.28759 11.0894C2.37352 11.0819 2.45979 11.0992 2.53623 11.1391C3.02009 11.4589 3.58135 11.6419 4.16068 11.669C4.74 11.6961 5.31587 11.5661 5.82742 11.2928C5.8957 11.2631 5.9715 11.2552 6.04444 11.2702C7.05662 11.4703 8.05362 11.7407 9.02821 12.0795C10.8336 12.6901 12.5316 13.581 14.06 14.7197C14.8056 15.2876 15.4986 15.9216 16.1305 16.6139L16.5419 17.7758L16.777 18.4358C16.7733 18.6884 16.6918 18.9336 16.5438 19.1383C16.3958 19.3429 16.1884 19.497 15.9497 19.5796H15.9271Z" fill="white"></path></g><defs><clipPath id="clip0"><rect width="184" height="37.0713" fill="white"></rect></clipPath></defs></svg> 