<svg width="22" height="22" viewBox="0 0 22 22" fill="none" xmlns="http://www.w3.org/2000/svg">
<path d="M17.111 10.1416L7.32071 0.351461C7.09428 0.124845 6.792 0 6.4697 0C6.14739 0 5.84512 0.124845 5.61868 0.351461L4.89769 1.07227C4.42854 1.54195 4.42854 2.30533 4.89769 2.7743L13.1188 10.9954L4.88857 19.2257C4.66213 19.4523 4.53711 19.7544 4.53711 20.0765C4.53711 20.399 4.66213 20.7011 4.88857 20.9279L5.60956 21.6485C5.83617 21.8752 6.13827 22 6.46057 22C6.78288 22 7.08515 21.8752 7.31159 21.6485L17.111 11.8495C17.338 11.6222 17.4626 11.3186 17.4619 10.996C17.4626 10.6721 17.338 10.3687 17.111 10.1416Z" fill="#3586DC"/>
</svg>
