<svg width="25" height="25" viewBox="0 0 25 25" fill="none" xmlns="http://www.w3.org/2000/svg">
<path d="M15.2535 12.4998L24.6006 3.15224C24.8577 2.89492 24.9996 2.55163 25 2.18557C25 1.81931 24.8581 1.47561 24.6006 1.2187L23.7815 0.399797C23.524 0.141871 23.1807 0.000610352 22.8142 0.000610352C22.4484 0.000610352 22.1051 0.141871 21.8476 0.399797L12.5004 9.74675L3.15285 0.399797C2.89573 0.141871 2.55224 0.000610352 2.18598 0.000610352C1.82012 0.000610352 1.47663 0.141871 1.21951 0.399797L0.4 1.2187C-0.133333 1.75203 -0.133333 2.61951 0.4 3.15224L9.74736 12.4998L0.4 21.847C0.142683 22.1047 0.00101626 22.448 0.00101626 22.814C0.00101626 23.1801 0.142683 23.5234 0.4 23.7809L1.21931 24.5998C1.47642 24.8575 1.82012 24.999 2.18577 24.999C2.55203 24.999 2.89553 24.8575 3.15264 24.5998L12.5002 15.2526L21.8474 24.5998C22.1049 24.8575 22.4482 24.999 22.814 24.999H22.8144C23.1805 24.999 23.5238 24.8575 23.7813 24.5998L24.6004 23.7809C24.8575 23.5236 24.9994 23.1801 24.9994 22.814C24.9994 22.448 24.8575 22.1047 24.6004 21.8472L15.2535 12.4998Z" fill="white"/>
</svg>
