<svg width="25" height="25" viewBox="0 0 25 25" fill="none" xmlns="http://www.w3.org/2000/svg">
<path d="M12.5 0C5.6076 0 0 5.6076 0 12.5C0 19.3924 5.6076 25 12.5 25C19.3924 25 25 19.3924 25 12.5C25 5.6076 19.3924 0 12.5 0ZM13.3131 19.9166C12.7192 20.0156 11.5376 20.2629 10.9375 20.3125C10.4296 20.3546 9.95026 20.0639 9.65807 19.6465C9.36512 19.2292 9.29492 18.6951 9.46885 18.216L11.8317 11.7188H9.37499C9.3729 10.365 10.3884 9.36951 11.6872 8.98748C12.307 8.80512 13.4618 8.55556 14.0625 8.59381C14.4224 8.6167 15.0497 8.8425 15.3419 9.25987C15.6349 9.6772 15.7051 10.2113 15.5312 10.6904L13.1683 17.1876H15.6242C15.6247 18.5398 14.6471 19.6943 13.3131 19.9166ZM14.0625 7.81253C13.1995 7.81253 12.5 7.11289 12.5 6.25001C12.5 5.38704 13.1995 4.6875 14.0625 4.6875C14.9255 4.6875 15.625 5.38704 15.625 6.25001C15.625 7.11294 14.9255 7.81253 14.0625 7.81253Z" fill="#505050"/>
</svg>
