<svg width="166" height="47" viewBox="0 0 166 47" fill="none" xmlns="http://www.w3.org/2000/svg">
<path d="M15.536 17L9.224 8.432L15.272 0.991999H9.344L5.144 6.992V0.991999H0.296V17H5.144V12.56L6.032 11.36L9.632 17H15.536ZM22.8526 17.288C27.7966 17.288 31.6126 13.928 31.6126 9.008C31.6126 4.088 27.7966 0.727999 22.8526 0.727999C17.9086 0.727999 14.0926 4.088 14.0926 9.008C14.0926 13.928 17.9086 17.288 22.8526 17.288ZM22.8526 13.016C20.5246 13.016 19.0126 11.24 19.0126 9.008C19.0126 6.776 20.5246 5 22.8526 5C25.1806 5 26.6926 6.776 26.6926 9.008C26.6926 11.24 25.1806 13.016 22.8526 13.016ZM48.2836 17V0.991999H43.4356V6.656H37.6996V0.991999H32.8516V17H37.6996V10.88H43.4356V17H48.2836ZM62.3711 19.952H67.2191V12.776H65.8271V0.991999H60.9791V12.776H55.2431V0.991999H50.3951V17H62.3711V19.952ZM80.4809 17V12.776H73.1849V11.024H80.3129V6.8H73.1849V5.216H80.4809V0.991999H68.3369V17H80.4809ZM87.0018 17V11.96H90.6978C94.4418 11.96 96.4578 9.464 96.4578 6.488C96.4578 3.488 94.4418 0.991999 90.6978 0.991999H82.1538V17H87.0018ZM90.0738 7.736H87.0018V5.216H90.0738C90.8898 5.216 91.5378 5.624 91.5378 6.488C91.5378 7.328 90.8898 7.736 90.0738 7.736ZM112.996 17V0.991999H108.148V6.656H102.412V0.991999H97.5644V17H102.412V10.88H108.148V17H112.996ZM15.728 46V29.992H0.296V46H5.144V34.216H10.88V46H15.728ZM25.7354 46.288C30.6794 46.288 34.4954 42.928 34.4954 38.008C34.4954 33.088 30.6794 29.728 25.7354 29.728C20.7914 29.728 16.9754 33.088 16.9754 38.008C16.9754 42.928 20.7914 46.288 25.7354 46.288ZM25.7354 42.016C23.4074 42.016 21.8954 40.24 21.8954 38.008C21.8954 35.776 23.4074 34 25.7354 34C28.0634 34 29.5754 35.776 29.5754 38.008C29.5754 40.24 28.0634 42.016 25.7354 42.016ZM50.9744 46L44.6624 37.432L50.7104 29.992H44.7824L40.5824 35.992V29.992H35.7344V46H40.5824V41.56L41.4704 40.36L45.0704 46H50.9744ZM56.204 46V40.96H59.9C63.644 40.96 65.66 38.464 65.66 35.488C65.66 32.488 63.644 29.992 59.9 29.992H51.356V46H56.204ZM59.276 36.736H56.204V34.216H59.276C60.092 34.216 60.74 34.624 60.74 35.488C60.74 36.328 60.092 36.736 59.276 36.736ZM74.6626 46.288C79.6066 46.288 83.4226 42.928 83.4226 38.008C83.4226 33.088 79.6066 29.728 74.6626 29.728C69.7186 29.728 65.9026 33.088 65.9026 38.008C65.9026 42.928 69.7186 46.288 74.6626 46.288ZM74.6626 42.016C72.3346 42.016 70.8226 40.24 70.8226 38.008C70.8226 35.776 72.3346 34 74.6626 34C76.9906 34 78.5026 35.776 78.5026 38.008C78.5026 40.24 76.9906 42.016 74.6626 42.016ZM94.7176 46C97.9336 46 99.4456 43.888 99.4456 41.656C99.4456 39.592 98.1256 38.008 96.3976 37.744C97.9576 37.408 99.1336 36.064 99.1336 34.072C99.1336 32.2 97.6936 29.992 94.3816 29.992H84.6616V46H94.7176ZM93.2536 35.896H89.5096V34.024H93.2536C93.7576 34.024 94.2136 34.384 94.2136 34.936C94.2136 35.512 93.7576 35.896 93.2536 35.896ZM93.3976 41.968H89.5096V39.928H93.3976C94.0936 39.928 94.5256 40.384 94.5256 40.96C94.5256 41.56 94.0936 41.968 93.3976 41.968ZM108.86 46.288C113.06 46.288 115.196 43.744 116.132 41.608L111.956 39.688C111.548 40.936 110.3 42.016 108.86 42.016C106.532 42.016 104.972 40.24 104.972 38.008C104.972 35.776 106.532 34 108.86 34C110.3 34 111.548 35.08 111.956 36.328L116.132 34.384C115.172 32.176 113.06 29.728 108.86 29.728C103.844 29.728 100.052 33.064 100.052 38.008C100.052 42.928 103.844 46.288 108.86 46.288ZM132.41 46L126.098 37.432L132.146 29.992H126.218L122.018 35.992V29.992H117.17V46H122.018V41.56L122.906 40.36L126.506 46H132.41ZM137.448 46L143.352 36.928V46H148.2V29.992H143.208L137.64 38.536V29.992H132.792V46H137.448ZM154.968 46L160.872 36.928V46H165.72V29.992H160.728L155.16 38.536V29.992H150.312V46H154.968ZM162.216 27.304L160.416 25.816C159.84 26.632 159.024 27.088 158.016 27.088C156.96 27.088 156.144 26.56 155.616 25.816L153.792 27.304C154.776 28.6 156.312 29.416 158.016 29.416C159.744 29.416 161.256 28.6 162.216 27.304Z" fill="white"/>
</svg>
