<svg width="402" height="130" viewBox="0 0 402 130" fill="none" xmlns="http://www.w3.org/2000/svg">
<path d="M146.039 91.5436V92.7734C146.039 94.0032 145.424 94.9256 143.887 94.9256H138.045C136.508 94.9256 135.893 94.3107 135.893 92.7734V87.2393C135.893 85.7021 136.508 85.0872 138.353 85.0872H144.194C146.039 85.0872 146.347 86.0095 146.347 87.2393V88.4691L143.887 89.084V87.2393H138.353C138.045 87.2393 138.045 87.2393 138.045 87.5468V92.466C138.045 92.7734 138.045 92.7734 138.353 92.7734H143.58V90.9287L146.039 91.5436Z" fill="#0074A8"/>
<path d="M150.036 90.9287C150.036 89.6989 150.651 88.7765 152.189 88.7765H158.03V87.2393C158.03 86.9318 158.03 86.9318 157.723 86.9318H152.496V87.8542L150.036 87.5467V86.6244C150.036 85.3946 150.959 84.4722 152.189 84.4722H158.338C159.875 84.4722 160.49 85.0871 160.49 86.6244V94.6181H152.189C150.651 94.6181 150.036 94.0032 150.036 92.466V90.9287ZM152.496 92.466C152.496 92.7734 152.496 92.7734 152.803 92.7734H158.03V90.9287H152.803C152.496 90.9287 152.496 90.9287 152.496 91.2362V92.466Z" fill="#0074A8"/>
<path d="M172.172 94.9256L169.098 91.5436L166.331 94.9256H163.564L167.868 90.0064L163.564 85.0872H166.638L169.098 88.1617L171.558 85.0872H174.325L170.328 89.6989L174.94 94.9256H172.172Z" fill="#0074A8"/>
<path d="M178.014 90.9287C178.014 89.6989 178.629 88.7765 180.166 88.7765H186.008V87.2393C186.008 86.9318 186.008 86.9318 185.7 86.9318H180.474V87.8542H178.321V86.9318C178.321 85.702 179.244 84.7797 180.474 84.7797H186.623C188.16 84.7797 188.775 85.3946 188.775 86.9318V94.9256H180.474C178.936 94.9256 178.321 94.3107 178.321 92.7734V90.9287H178.014ZM180.474 92.4659C180.474 92.7734 180.474 92.7734 180.781 92.7734H186.008V90.9287H180.781C180.474 90.9287 180.474 90.9287 180.474 91.2361V92.4659Z" fill="#0074A8"/>
<path d="M201.688 85.0872C203.225 85.0872 203.84 86.0095 203.84 87.5468V92.466C203.84 94.3107 202.918 94.6181 201.073 94.6181H196.769C195.846 94.6181 195.539 94.6181 195.231 94.3107V99.2299L192.772 99.8448V87.2393C192.772 85.7021 193.387 85.0872 194.924 85.0872H201.688ZM201.38 87.5468C201.38 87.2393 201.38 87.2393 201.073 87.2393H195.846C195.539 87.2393 195.539 87.2393 195.539 87.5468V92.466H195.846C196.154 92.466 196.154 92.466 196.461 92.466H201.073C201.38 92.466 201.38 92.466 201.38 92.1585V87.5468Z" fill="#0074A8"/>
<path d="M216.138 94.9256V90.9287H210.296V94.9256H207.837V84.7797H210.296V88.4691H216.138V84.7797H218.597V94.9256H216.138Z" fill="#0074A8"/>
<path d="M232.741 92.7734C232.741 94.0032 232.126 94.9256 230.281 94.9256H222.902V84.7797H225.362V88.1616H230.588C231.818 88.1616 232.741 88.7765 232.741 90.3138V92.7734ZM230.281 91.2361C230.281 90.9287 230.281 90.6212 229.666 90.6212H225.362V92.7734H229.666C230.281 92.7734 230.281 92.7734 230.281 92.1585V91.2361ZM236.737 94.9256H234.278V84.7797H236.737V94.9256Z" fill="#0074A8"/>
<path d="M251.803 90.9287H243.501V92.7734C243.501 93.0809 243.501 93.0809 243.809 93.0809H249.343V91.8511L251.803 92.1585V92.7734C251.803 93.6958 251.495 94.9256 249.65 94.9256H243.501C241.964 94.9256 241.349 94.3107 241.349 92.7734V87.2393C241.349 85.3946 241.964 85.0872 243.809 85.0872H249.958C251.803 85.0872 252.417 85.7021 252.417 87.2393V90.9287H251.803ZM249.343 87.2393C249.343 86.9319 249.343 86.9319 249.036 86.9319H243.809C243.501 86.9319 243.501 86.9319 243.501 87.2393V88.7766H249.343V87.2393Z" fill="#0074A8"/>
<path d="M268.712 87.2393V95.233H266.252V87.2393H262.256V85.0872H272.709V87.2393H268.712Z" fill="#0074A8"/>
<path d="M286.544 90.9287H278.243V92.7734C278.243 93.0809 278.243 93.0809 278.551 93.0809H284.085V91.8511L286.544 92.1585V92.7734C286.544 93.6958 286.237 94.9256 284.392 94.9256H278.243C276.706 94.9256 276.091 94.3107 276.091 92.7734V87.2393C276.091 85.3946 276.706 85.0872 278.551 85.0872H284.7C286.544 85.0872 287.159 85.7021 287.159 87.2393V90.9287H286.544ZM284.085 87.2393C284.085 86.9319 284.085 86.9319 283.777 86.9319H278.551C278.243 86.9319 278.243 86.9319 278.243 87.2393V88.7766H284.085V87.2393Z" fill="#0074A8"/>
<path d="M297.92 94.9256L294.846 91.5436L292.079 94.9256H289.312L293.616 90.0064L289.312 85.0872H292.386L294.846 88.1617L297.305 85.0872H300.072L296.075 89.6989L300.687 94.9256H297.92Z" fill="#0074A8"/>
<path d="M312.063 94.9256V90.9287H306.221V94.9256H303.762V84.7797H306.221V88.4691H312.063V84.7797H314.522V94.9256H312.063Z" fill="#0074A8"/>
<path d="M329.588 92.1585C329.588 94.3106 328.973 94.9256 326.821 94.9256H321.594C319.442 94.9256 318.827 94.3106 318.827 92.1585V87.5467C318.827 85.3946 319.442 84.7797 321.594 84.7797H326.821C328.973 84.7797 329.588 85.3946 329.588 86.9318V92.1585ZM321.286 92.4659C321.286 92.7734 321.286 92.7734 321.594 92.7734H326.821C327.128 92.7734 327.128 92.7734 327.128 92.4659V87.5467C327.128 87.2393 327.128 87.2393 326.821 87.2393H321.594C321.286 87.2393 321.286 87.2393 321.286 87.5467V92.4659Z" fill="#0074A8"/>
<path d="M337.581 84.7797H339.734L344.653 94.9256H341.886L338.504 87.5467L335.122 94.9256H332.355L337.581 84.7797Z" fill="#0074A8"/>
<path d="M358.181 92.1585C358.181 94.3106 357.566 94.9256 355.414 94.9256H350.187C348.035 94.9256 347.42 94.3106 347.42 92.1585V87.5467C347.42 85.3946 348.035 84.7797 350.187 84.7797H355.414C357.566 84.7797 358.181 85.3946 358.181 86.9318V92.1585ZM349.88 92.4659C349.88 92.7734 349.88 92.7734 350.187 92.7734H355.414C355.721 92.7734 355.721 92.7734 355.721 92.4659V87.5467C355.721 87.2393 355.721 87.2393 355.414 87.2393H350.187C349.88 87.2393 349.88 87.2393 349.88 87.5467V92.4659Z" fill="#0074A8"/>
<path d="M371.401 85.0872V87.2393H364.944V95.233H362.485V85.0872H371.401Z" fill="#0074A8"/>
<path d="M374.475 94.9256V84.7797H376.935V91.2361L382.777 84.7797H384.929V94.9256H382.469V88.4691L376.627 94.9256H374.475Z" fill="#0074A8"/>
<path d="M389.541 94.9256V84.7797H392V91.2361L397.842 84.7797H399.994V94.9256H397.534V88.4691L391.693 94.9256H389.541Z" fill="#0074A8"/>
<path d="M213.371 64.4879H191.235V69.0997C191.235 69.7146 191.542 70.0221 192.157 70.0221H206.607V66.9475L213.064 67.8699V69.7146C213.064 72.4817 212.141 75.2487 206.915 75.2487H190.62C186.315 75.2487 184.471 73.404 184.471 69.4072V54.6495C184.471 50.0377 186.315 48.8079 190.927 48.8079H206.915C211.526 48.8079 213.064 50.3452 213.064 54.6495V64.4879H213.371ZM206.915 55.2644C206.915 54.6495 206.607 54.342 205.992 54.342H192.464C191.85 54.342 191.542 54.6495 191.542 55.2644V59.2613H207.222V55.2644H206.915Z" fill="#3C3C3B"/>
<path d="M236.738 77.4009V73.0965H228.436C224.132 73.0965 222.287 71.5593 222.287 66.9475V57.4165C222.287 53.1122 223.825 51.2675 228.436 51.2675H236.738V46.9632H242.272V51.2675H250.88C255.492 51.2675 257.029 53.1122 257.029 57.4165V66.9475C257.029 71.5593 255.185 73.0965 250.88 73.0965H242.272V77.4009H236.738ZM229.666 56.8016C228.744 56.8016 228.744 57.1091 228.744 57.724V66.0252C228.744 66.9475 229.051 66.9475 229.666 66.9475H236.738V56.4942H229.666V56.8016ZM242.272 56.8016V67.255H249.65C250.265 67.255 250.573 66.9475 250.573 66.3326V58.0314C250.573 57.1091 250.265 57.1091 249.65 57.1091H242.272V56.8016Z" fill="#3C3C3B"/>
<path d="M294.538 68.1774C294.538 74.3264 293.001 75.5562 287.16 75.5562H273.017C266.868 75.5562 265.638 74.0189 265.638 68.1774V56.1868C265.638 50.3452 266.868 48.8079 273.017 48.8079H286.852C292.386 48.8079 294.231 50.0377 294.231 54.6495V68.1774H294.538ZM272.094 68.4848C272.094 69.4072 272.402 69.4072 273.017 69.4072H286.852C287.774 69.4072 287.774 69.0997 287.774 68.4848V55.5719C287.774 54.6495 287.467 54.6495 286.852 54.6495H273.017C272.094 54.6495 272.094 54.9569 272.094 55.5719V68.4848Z" fill="#3C3C3B"/>
<path d="M317.905 54.6495V75.5562H311.448V54.6495H300.688V48.8079H328.666V54.6495H317.905Z" fill="#3C3C3B"/>
<path d="M363.407 64.4879H341.271V69.0997C341.271 69.7146 341.578 70.0221 342.193 70.0221H356.644V66.9475L363.1 67.8699V69.7146C363.1 72.4817 362.178 75.2487 356.951 75.2487H340.656C336.352 75.2487 334.507 73.404 334.507 69.4072V54.6495C334.507 50.0377 336.352 48.8079 340.964 48.8079H356.951C361.563 48.8079 363.1 50.3452 363.1 54.6495V64.4879H363.407ZM356.951 55.2644C356.951 54.6495 356.644 54.342 356.029 54.342H342.501C341.886 54.342 341.578 54.6495 341.578 55.2644V59.2613H357.258V55.2644H356.951Z" fill="#3C3C3B"/>
<path d="M392.308 75.2487L379.087 63.5656V75.2487H372.631V48.8079H379.087V59.5687L391.385 48.8079H399.994L385.544 61.4134L401.531 75.5562H392.308V75.2487Z" fill="#3C3C3B"/>
<path d="M136.816 67.8699L151.881 38.0471H157.415L171.866 67.8699H174.633V76.4785H169.099V73.7115H139.583V76.4785H134.049V67.8699H136.816ZM164.487 67.8699L154.341 45.426L143.888 67.8699H164.487Z" fill="#3C3C3B"/>
<path d="M45.1952 120.751C42.7356 120.751 39.9685 119.522 38.4313 117.37L3.38182 69.0997C1.22966 66.0252 1.22966 62.3357 3.38182 59.2612L38.4313 11.2988C40.5834 8.22432 44.5803 6.99452 48.2697 8.53177L105.148 30.3608C108.223 31.5906 110.375 34.6651 110.375 38.0471V91.5436C110.375 94.9256 108.223 98.0001 104.841 99.2299L47.9622 120.137C47.0399 120.444 46.1175 120.751 45.1952 120.751ZM45.1952 13.7584C44.2728 13.7584 43.6579 14.0659 43.043 14.6808L8.30104 62.6432C7.68614 63.5655 7.68614 64.7953 8.30104 65.7177L43.043 113.68C43.6579 114.602 44.8877 114.91 46.1175 114.602L102.996 93.6958C103.918 93.3883 104.533 92.466 104.533 91.2362V38.0471C104.533 37.1247 103.918 35.8949 102.996 35.5875L46.1175 13.7584C45.8101 13.7584 45.5026 13.7584 45.1952 13.7584Z" fill="#3C3C3B"/>
<path d="M57.4934 129.975C55.9561 129.975 54.7263 129.668 53.1891 128.745L3.99687 100.46C1.53726 98.9224 0 96.4628 0 93.3883V36.5098C0 33.4353 1.53726 30.6683 4.30432 29.4385L53.4965 1.15294C55.9561 -0.384314 59.3381 -0.384314 61.7977 1.15294L110.99 29.4385C113.449 30.9757 115.294 33.7428 115.294 36.5098V93.3883C115.294 96.4628 113.757 99.2299 110.99 100.46L61.4902 129.053C60.2604 129.668 59.0306 129.975 57.4934 129.975ZM57.4934 5.76471C57.1859 5.76471 56.571 5.76471 56.2636 6.07216L7.07138 34.3577C6.14902 34.6651 5.84157 35.5875 5.84157 36.5098V93.3883C5.84157 94.3107 6.45648 95.233 7.07138 95.5405L56.2636 123.826C57.1859 124.133 58.1083 124.133 58.7232 123.826L107.915 95.5405C108.838 95.233 109.145 94.3107 109.145 93.3883V36.5098C109.145 35.5875 108.53 34.6651 107.915 34.3577L58.7232 6.07216C58.4157 5.76471 57.8008 5.76471 57.4934 5.76471Z" fill="#3C3C3B"/>
<path opacity="0.6" d="M47.0399 24.5192L17.5245 65.1028L71.0211 73.0965L47.0399 24.5192Z" fill="#76CBF3"/>
<path opacity="0.6" d="M94.6948 42.6589L17.5245 65.1028L47.0399 105.686L94.6948 42.6589Z" fill="#76CBF3"/>
<path opacity="0.6" d="M71.0214 33.4353L47.0402 105.686L94.6951 87.8542L71.0214 33.4353Z" fill="#76CBF3"/>
<path opacity="0.6" d="M31.0529 84.7797L47.0403 24.5192L94.6953 42.6588L31.0529 84.7797Z" fill="#76CBF3"/>
<path opacity="0.6" d="M94.6948 42.6589V87.8542L17.5245 65.1028L94.6948 42.6589Z" fill="#76CBF3"/>
</svg>
