<svg width="30" height="30" viewBox="0 0 30 30" fill="none" xmlns="http://www.w3.org/2000/svg">
<rect width="30" height="30" rx="15" fill="#F97C36"/>
<g clip-path="url(#clip0)">
<path d="M15.283 10.3476C15.7155 10.3476 16.0661 9.99701 16.0661 9.56454C16.0661 9.13208 15.7155 8.78149 15.283 8.78149C14.8506 8.78149 14.5 9.13208 14.5 9.56454C14.5 9.99701 14.8506 10.3476 15.283 10.3476Z" fill="white"/>
<path d="M16.8492 9.25307C17.1952 9.25307 17.4757 8.97256 17.4757 8.62654C17.4757 8.28051 17.1952 8 16.8492 8C16.5032 8 16.2227 8.28051 16.2227 8.62654C16.2227 8.97256 16.5032 9.25307 16.8492 9.25307Z" fill="white"/>
<path d="M19.4804 18.6893L16.2225 13.4801V11.9157H17.1623V10.8193H11.837V11.9157H12.7768V13.4801L9.51882 18.6893C9.39938 18.9107 9.33105 19.1639 9.33105 19.4336C9.33105 20.2985 10.0322 20.9999 10.8974 20.9999H18.1021C18.967 20.9999 19.6684 20.2988 19.6684 19.4336C19.6684 19.1639 19.6001 18.9107 19.4804 18.6893ZM12.0128 16.769L13.8731 13.7945V11.9154H15.1261V13.7945L16.9864 16.769H12.0128Z" fill="white"/>
</g>
<defs>
<clipPath id="clip0">
<rect x="8" y="8" width="13" height="13" fill="white"/>
</clipPath>
</defs>
</svg>
