<svg width="75" height="75" viewBox="0 0 75 75" fill="none" xmlns="http://www.w3.org/2000/svg">
<path d="M75 37.5C75 34.4701 72.9464 31.9124 69.9554 31.1442C69.6743 29.6893 69.1523 28.2688 68.6867 26.8913C70.8368 24.8421 71.3968 21.5098 69.8496 18.8232C68.3369 16.2032 65.2834 15.0167 62.3093 15.8407C61.3437 14.7356 60.3051 13.697 59.2022 12.7293C60.0476 9.87334 58.8653 6.69976 56.1746 5.15054C53.5503 3.63779 50.308 4.13774 48.1579 6.32856C46.7824 5.86289 45.362 5.33877 43.9115 5.05562C43.2163 2.15859 40.6049 0 37.5 0C34.4701 0 31.9124 2.05356 31.1442 5.04463C29.6893 5.32573 28.2688 5.84766 26.8934 6.31333C24.842 4.16323 21.5096 3.60103 18.8253 5.15039C16.2032 6.66108 15.0123 9.7166 15.8405 12.6927C14.7354 13.6562 13.6969 14.6947 12.7292 15.7976C9.87964 14.9522 6.70181 16.1366 5.15039 18.8253C3.63765 21.4474 4.1376 24.6876 6.32842 26.8419C5.86274 28.2174 5.33862 29.6379 5.05547 31.0884C2.15859 31.7837 0 34.3951 0 37.5C0 40.5299 2.05356 43.0876 5.04463 43.8558C5.32573 45.3107 5.84766 46.7312 6.31333 48.1087C4.16338 50.1579 3.60337 53.4902 5.15039 56.1768C6.66533 58.801 9.73374 59.9897 12.6907 59.1593C13.6563 60.2644 14.6949 61.303 15.7978 62.2707C14.9544 65.1245 16.1367 68.298 18.8254 69.8495C21.4497 71.3602 24.6898 71.0087 26.8421 68.8179C28.2176 69.2836 29.638 69.6612 31.0885 69.9444C31.7837 72.8414 34.3951 75 37.5 75C40.5299 75 43.0876 72.7999 43.8558 69.8089C45.3107 69.5278 46.7312 69.1523 48.1066 68.6867C50.1602 70.8368 53.4926 71.4032 56.1769 69.8496C58.7969 68.3369 59.9856 65.2812 59.1595 62.3093C60.2645 61.3437 61.3031 60.3051 62.2708 59.2022C65.1204 60.0456 68.2961 58.8611 69.8496 56.1746C71.3624 53.5525 70.8624 50.3123 68.6716 48.1579C69.1373 46.7824 69.6614 45.362 69.9445 43.9115C72.8414 43.2163 75 40.6049 75 37.5ZM15.5273 44.0918C14.3139 44.0918 13.3301 43.108 13.3301 41.8945C13.3301 40.6808 14.3139 39.6973 15.5273 39.6973C16.7408 39.6973 17.7246 40.6808 17.7246 41.8945C17.7246 43.108 16.7408 44.0918 15.5273 44.0918ZM22.4968 24.3164L28.7109 18.1022C30.3391 16.4741 33.2991 16.4741 34.9273 18.1022C36.6136 19.7886 36.6691 22.5724 34.9251 24.3164L28.7109 30.5306C26.9669 32.2745 24.1831 32.2189 22.4968 30.5328C20.7817 28.8177 20.7749 26.0385 22.4968 24.3164ZM35.3027 37.5C35.3027 38.7135 34.3189 39.6973 33.1055 39.6973C31.892 39.6973 30.9082 38.7135 30.9082 37.5C30.9082 36.2862 31.892 35.3027 33.1055 35.3027C34.3189 35.3027 35.3027 36.2862 35.3027 37.5ZM41.0706 54.3979C40.0516 56.5809 37.4423 57.5596 35.234 56.5244L27.2647 52.8101C25.0846 51.7928 24.1061 49.1854 25.1404 46.9693C26.1593 44.7857 28.7565 43.8084 30.979 44.8428L38.9462 48.5571C41.1264 49.5746 42.1049 52.1818 41.0706 54.3979ZM46.2891 13.3301C47.5025 13.3301 48.4863 14.3136 48.4863 15.5273C48.4863 16.7408 47.5025 17.7246 46.2891 17.7246C45.0756 17.7246 44.0918 16.7408 44.0918 15.5273C44.0918 14.3136 45.0756 13.3301 46.2891 13.3301ZM50.6836 52.8809C49.4701 52.8809 48.4863 51.8971 48.4863 50.6836C48.4863 49.4698 49.4701 48.4863 50.6836 48.4863C51.8971 48.4863 52.8809 49.4698 52.8809 50.6836C52.8809 51.8971 51.8971 52.8809 50.6836 52.8809ZM56.9 39.3196C55.1849 41.0344 52.4057 41.0416 50.6836 39.3196L44.4694 33.1055C42.7475 31.3835 42.7544 28.6039 44.4694 26.8891C46.1029 25.2599 49.0589 25.2667 50.6836 26.8913L56.8978 33.1055C58.6417 34.8495 58.5861 37.6333 56.9 39.3196Z" fill="#DADADA"/>
</svg>
