<svg width="92" height="92" viewBox="0 0 92 92" fill="none" xmlns="http://www.w3.org/2000/svg">
<path d="M55.953 0H36.0366C32.6871 0 29.9619 2.72514 29.9619 6.0747C29.9619 9.42425 32.6871 12.1494 36.0366 12.1494H55.9532C59.3027 12.1494 62.0279 9.42425 62.0279 6.0747C62.0279 2.72514 59.3027 0 55.953 0Z" fill="#DADADA"/>
<path d="M89.9002 27.528L77.4583 15.5635C75.2226 13.414 71.6553 13.4839 69.506 15.7193C68.4647 16.8021 67.9074 18.2255 67.9366 19.7277C67.9661 21.2297 68.5785 22.6304 69.6615 23.6719L82.1036 35.6365C83.1928 36.6836 84.5975 37.2041 86.001 37.2041C87.4782 37.2041 88.9538 36.6272 90.0562 35.4807C92.2056 33.2453 92.1355 29.6776 89.9002 27.528Z" fill="#DADADA"/>
<path d="M22.4947 15.5952C20.3451 13.3596 16.7778 13.29 14.5421 15.4395L2.10002 27.4041C-0.135287 29.5539 -0.204826 33.1214 1.94459 35.3564C3.04698 36.503 4.52221 37.0799 5.99978 37.0799C7.40314 37.0799 8.80812 36.5592 9.8972 35.5123L22.3391 23.5479V23.5477C23.4217 22.5064 24.0345 21.1057 24.0639 19.6035C24.0932 18.1015 23.5358 16.6779 22.4947 15.5952Z" fill="#DADADA"/>
<path d="M75.8867 61.8274L67.2682 65.5715C62.5315 67.6187 57.1813 67.4523 52.5854 65.1171L51.6679 64.651C48.0206 62.7975 43.7426 62.9373 40.2243 65.0246C37.5283 66.624 34.4675 67.4281 31.4049 67.4281C28.6056 67.4281 25.8046 66.7569 23.2769 65.4077L23.2216 65.3773L16.1491 61.3868C15.6481 61.1042 15.0298 61.4686 15.0313 62.0436C15.0313 62.0446 15.0313 62.0457 15.0313 62.0466C15.0314 79.129 28.9121 92 45.9945 92C62.5653 92 76.1367 78.9221 76.9347 62.5458C76.9616 61.9934 76.3938 61.6071 75.8867 61.8274ZM50.4502 80.7539C50.4412 80.8419 50.4286 80.93 50.4106 81.0164C50.3927 81.1025 50.3711 81.1891 50.346 81.2735C50.3208 81.3562 50.2903 81.4408 50.2561 81.5217C50.2238 81.6025 50.186 81.6818 50.1447 81.7591C50.1034 81.8379 50.0567 81.9138 50.0081 81.9874C49.9596 82.0593 49.9075 82.1314 49.8518 82.1998C49.7961 82.2681 49.735 82.3346 49.6737 82.3977C49.6109 82.4588 49.5444 82.5181 49.4759 82.5757C49.4076 82.6296 49.3376 82.6835 49.2637 82.7322C49.19 82.7808 49.1146 82.8257 49.0371 82.867C48.9598 82.9082 48.879 82.9459 48.798 82.9802C48.7171 83.0142 48.6325 83.0431 48.5498 83.0701C48.4654 83.0952 48.3789 83.1168 48.2927 83.1329C48.2064 83.1511 48.1182 83.1655 48.0319 83.1727C47.9439 83.1816 47.8539 83.1869 47.7658 83.1869C47.6778 83.1869 47.5896 83.1816 47.5015 83.1727C47.4135 83.1655 47.3252 83.1511 47.239 83.1329C47.1527 83.1168 47.0663 83.0952 46.9836 83.0701C46.8992 83.0431 46.8146 83.0142 46.7337 82.9802C46.6528 82.9461 46.5736 82.9083 46.4963 82.867C46.4173 82.8257 46.3416 82.7808 46.268 82.7322C46.1961 82.6835 46.1242 82.6298 46.0557 82.5757C45.9875 82.5182 45.921 82.4589 45.8597 82.3977C45.7968 82.3348 45.7375 82.2683 45.6798 82.1998C45.6259 82.1315 45.572 82.0597 45.5235 81.9874C45.475 81.9139 45.4301 81.8383 45.3887 81.7591C45.3474 81.6818 45.3097 81.6027 45.2755 81.5217C45.2414 81.4406 45.2126 81.3562 45.1857 81.2735C45.1605 81.1891 45.139 81.1027 45.121 81.0164C45.1048 80.9302 45.0905 80.8419 45.0815 80.7539C45.0743 80.6676 45.0689 80.5776 45.0689 80.4894C45.0689 80.4015 45.0743 80.3115 45.0815 80.2234C45.0905 80.1372 45.1048 80.049 45.121 79.9627C45.139 79.8766 45.1605 79.79 45.1857 79.7056C45.2126 79.6229 45.2414 79.5383 45.2755 79.4574C45.3097 79.3766 45.3474 79.2955 45.3887 79.2183C45.4301 79.1408 45.475 79.0652 45.5235 78.9917C45.572 78.918 45.6259 78.8476 45.6798 78.7793C45.7373 78.711 45.7966 78.6445 45.8597 78.5815C45.9208 78.5204 45.9873 78.4593 46.0557 78.4034C46.124 78.3477 46.1959 78.2956 46.268 78.2471C46.3416 78.1985 46.4171 78.1518 46.4963 78.1105C46.5736 78.0692 46.6527 78.0314 46.7337 77.9991C46.8146 77.9651 46.8992 77.9344 46.9836 77.9092C47.0663 77.8841 47.1525 77.8625 47.239 77.8446C47.3252 77.8284 47.4135 77.814 47.5015 77.805C47.6778 77.7871 47.8557 77.7871 48.0319 77.805C48.1182 77.814 48.2064 77.8284 48.2927 77.8446C48.3789 77.8627 48.4654 77.8843 48.5498 77.9092C48.6325 77.9344 48.7169 77.9651 48.798 77.9991C48.8788 78.0314 48.9598 78.0692 49.0371 78.1105C49.1144 78.1516 49.19 78.1985 49.2637 78.2471C49.3374 78.2958 49.4075 78.3479 49.4759 78.4034C49.5442 78.4593 49.6107 78.5202 49.6737 78.5815C49.7348 78.6444 49.7959 78.7108 49.8518 78.7793C49.9075 78.8476 49.9596 78.9178 50.0081 78.9917C50.0567 79.0652 50.1034 79.1406 50.1447 79.2183C50.186 79.2955 50.2238 79.3764 50.2561 79.4574C50.2903 79.5383 50.3208 79.6229 50.346 79.7056C50.3711 79.79 50.3927 79.8765 50.4106 79.9627C50.4286 80.049 50.4412 80.1372 50.4502 80.2234C50.4592 80.3115 50.4628 80.4015 50.4628 80.4894C50.4628 80.5776 50.4592 80.6675 50.4502 80.7539ZM53.3324 71.1332C53.3252 71.2211 53.3108 71.3093 53.2928 71.3958C53.2767 71.4818 53.2551 71.5684 53.2281 71.6511C53.203 71.7355 53.1742 71.8184 53.1401 71.901C53.106 71.9819 53.0682 72.0611 53.0269 72.1384C52.9856 72.2157 52.9406 72.2928 52.8921 72.365C52.8436 72.4387 52.7897 72.5105 52.7338 72.5788C52.6781 72.6473 52.6188 72.7136 52.5558 72.775C52.4947 72.8379 52.4282 72.8972 52.3597 72.9529C52.2914 73.0088 52.2196 73.0625 52.1457 73.1114C52.0738 73.1599 51.9966 73.2049 51.9191 73.2462C51.8419 73.2873 51.7628 73.3251 51.68 73.3594C51.5991 73.3933 51.5163 73.4223 51.4318 73.4472C51.3492 73.4742 51.2627 73.4959 51.1765 73.5119C51.0902 73.5299 51.002 73.5443 50.9139 73.5515C50.8259 73.5606 50.7377 73.5658 50.6496 73.5658C50.5616 73.5658 50.4716 73.5606 50.3835 73.5515C50.2973 73.5443 50.209 73.5299 50.1228 73.5119C50.0365 73.4958 49.9501 73.4742 49.8657 73.4472C49.783 73.4221 49.6984 73.3933 49.6175 73.3594C49.5366 73.3252 49.4556 73.2875 49.3783 73.2462C49.3011 73.2049 49.2254 73.1599 49.1518 73.1114C49.0781 73.0627 49.0062 73.009 48.9395 72.9529C48.8713 72.8972 48.8048 72.8379 48.7417 72.775C48.6806 72.7138 48.6195 72.6475 48.5636 72.5788C48.5079 72.5105 48.4558 72.4388 48.4073 72.365C48.3588 72.2931 48.3121 72.2158 48.2707 72.1384C48.2312 72.061 48.1917 71.9821 48.1593 71.901C48.1252 71.8184 48.0947 71.7355 48.0695 71.6511C48.0443 71.5684 48.0228 71.482 48.0048 71.3958C47.9886 71.3095 47.9743 71.2211 47.9653 71.1332C47.9563 71.0452 47.9527 70.957 47.9527 70.8687C47.9527 70.7805 47.9563 70.6907 47.9653 70.6028C47.9743 70.5165 47.9886 70.4281 48.0048 70.3421C48.0228 70.2558 48.0443 70.1694 48.0695 70.0849C48.0947 70.0023 48.1252 69.9175 48.1593 69.8366C48.1917 69.7559 48.2312 69.6751 48.2707 69.5976C48.3121 69.5202 48.3588 69.4445 48.4073 69.3709C48.4558 69.2972 48.5079 69.2271 48.5636 69.1586C48.6193 69.0904 48.6804 69.0239 48.7417 68.9608C48.8046 68.8995 48.8711 68.8384 48.9395 68.7827C49.006 68.7269 49.0779 68.6747 49.1518 68.6264C49.2254 68.5777 49.3009 68.5312 49.3783 68.4899C49.4556 68.4485 49.5365 68.4108 49.6175 68.3784C49.6984 68.3443 49.783 68.3138 49.8657 68.2886C49.9501 68.2633 50.0365 68.2419 50.1228 68.2239C50.209 68.2059 50.2973 68.1934 50.3835 68.1844C50.5598 68.1664 50.7377 68.1664 50.9139 68.1844C51.002 68.1934 51.0902 68.2059 51.1765 68.2239C51.2627 68.2421 51.3492 68.2634 51.4318 68.2886C51.5163 68.3138 51.5991 68.3443 51.68 68.3784C51.7626 68.4108 51.8419 68.4485 51.9191 68.4899C51.9964 68.531 52.0738 68.5777 52.1457 68.6264C52.2194 68.6749 52.2913 68.727 52.3597 68.7827C52.428 68.8384 52.4945 68.8994 52.5558 68.9608C52.6186 69.0237 52.6779 69.0902 52.7338 69.1586C52.7895 69.2269 52.8434 69.297 52.8921 69.3709C52.9406 69.4445 52.9856 69.52 53.0269 69.5976C53.0682 69.6749 53.106 69.7557 53.1401 69.8366C53.1742 69.9175 53.203 70.0023 53.2281 70.0849C53.2551 70.1694 53.2767 70.2556 53.2928 70.3421C53.3108 70.4281 53.3252 70.5165 53.3324 70.6028C53.3414 70.6907 53.3467 70.7807 53.3467 70.8687C53.3467 70.957 53.3414 71.045 53.3324 71.1332ZM63.4565 74.3407C63.4475 74.4285 63.4331 74.5168 63.417 74.6032C63.399 74.6876 63.3774 74.7741 63.3523 74.8585C63.3271 74.943 63.2966 75.0258 63.2624 75.1067C63.2283 75.1875 63.1906 75.2686 63.151 75.3458C63.1097 75.4231 63.063 75.4986 63.0145 75.5724C62.966 75.6461 62.9138 75.7181 62.858 75.7864C62.8023 75.8547 62.7412 75.9192 62.6799 75.9825C62.617 76.0454 62.5505 76.1046 62.4821 76.1605C62.4136 76.2164 62.3419 76.2683 62.2698 76.3188C62.1962 76.3673 62.1205 76.4123 62.0433 76.4536C61.966 76.4947 61.885 76.5325 61.8041 76.5668C61.7232 76.5991 61.6386 76.6297 61.5559 76.6549C61.4715 76.6816 61.3851 76.7034 61.2988 76.7194C61.2126 76.7375 61.1243 76.7499 61.0381 76.7589C60.95 76.7681 60.86 76.7733 60.772 76.7733C60.6839 76.7733 60.5939 76.7681 60.5059 76.7589C60.4196 76.7499 60.3314 76.7375 60.2451 76.7194C60.1589 76.7032 60.0724 76.6816 59.988 76.6549C59.9053 76.6295 59.8207 76.599 59.7398 76.5668C59.659 76.5327 59.5797 76.4949 59.5007 76.4536C59.4234 76.4123 59.3478 76.3673 59.2741 76.3188C59.2022 76.2685 59.1303 76.2164 59.0619 76.1605C58.9936 76.1046 58.9271 76.0454 58.864 75.9825C58.803 75.9194 58.7419 75.8549 58.686 75.7864C58.6301 75.718 58.5782 75.6463 58.5296 75.5724C58.4811 75.4987 58.4344 75.4231 58.3949 75.3458C58.3535 75.2686 58.3158 75.1875 58.2817 75.1067C58.2475 75.0258 58.2188 74.943 58.1918 74.8585C58.1667 74.7741 58.1451 74.6876 58.1271 74.6032C58.111 74.5169 58.0966 74.4285 58.0876 74.3407C58.0786 74.2526 58.075 74.1644 58.075 74.0762C58.075 73.9883 58.0786 73.8983 58.0876 73.8102C58.0966 73.724 58.111 73.6339 58.1271 73.5477C58.1451 73.4632 58.1667 73.3768 58.1918 73.2924C58.2188 73.2077 58.2475 73.1249 58.2817 73.0442C58.3158 72.9633 58.3535 72.8823 58.3949 72.805C58.4344 72.7276 58.4811 72.6505 58.5296 72.5783C58.5782 72.5048 58.6303 72.4327 58.686 72.3645C58.7417 72.2962 58.8028 72.2297 58.864 72.1684C58.9269 72.1053 58.9934 72.046 59.0619 71.9903C59.1302 71.9346 59.202 71.8807 59.2741 71.832C59.3478 71.7833 59.4232 71.7384 59.5007 71.6973C59.5797 71.6559 59.6588 71.6182 59.7398 71.5841C59.8207 71.5515 59.9053 71.521 59.988 71.496C60.0724 71.4709 60.1589 71.4475 60.2451 71.4313C60.3314 71.4134 60.4196 71.4008 60.5059 71.3918C60.6821 71.3738 60.8618 71.3738 61.0381 71.3918C61.1243 71.4008 61.2126 71.4134 61.2988 71.4313C61.3851 71.4477 61.4715 71.471 61.5559 71.496C61.6386 71.5212 61.7232 71.5517 61.8041 71.5841C61.885 71.618 61.966 71.6558 62.0433 71.6973C62.1205 71.7384 62.1962 71.7833 62.2698 71.832C62.3417 71.8805 62.4136 71.9345 62.4821 71.9903C62.5503 72.046 62.6168 72.1053 62.6799 72.1684C62.741 72.2295 62.8021 72.296 62.858 72.3645C62.9138 72.4329 62.9658 72.5046 63.0143 72.5783C63.0628 72.6502 63.1095 72.7274 63.1509 72.805C63.1904 72.8823 63.2281 72.9632 63.2623 73.0442C63.2964 73.1249 63.3269 73.2077 63.3521 73.2924C63.3773 73.3768 63.3988 73.4632 63.4168 73.5477C63.433 73.6338 63.4473 73.7238 63.4563 73.8102C63.4653 73.8983 63.4689 73.9883 63.4689 74.0762C63.4691 74.1644 63.4655 74.2526 63.4565 74.3407Z" fill="#DADADA"/>
<path d="M77.767 38.9843C78.0615 38.6871 78.0559 38.206 77.7542 37.916L67.4353 27.9931C67.1385 27.7078 66.6673 27.7152 66.3797 28.0099L61.0668 33.4513C60.835 33.6887 60.4764 33.7426 60.1815 33.5904C59.0373 32.9994 57.8592 32.4799 56.6517 32.0372C56.3547 31.9283 56.1549 31.6489 56.1549 31.3325V16.9159C56.1549 16.5019 55.8192 16.1665 55.4054 16.1665L36.5833 16.1693C36.1695 16.1693 35.834 16.505 35.834 16.9188V31.276C35.834 31.5973 35.6297 31.8852 35.3246 31.986C34.0127 32.419 32.7855 32.9094 31.5666 33.5347C31.2732 33.6853 30.9158 33.6244 30.6873 33.3868L25.2233 27.7049C24.9364 27.4065 24.462 27.3973 24.1637 27.6843L13.8013 37.6485C13.5028 37.9354 13.4937 38.4098 13.7806 38.7081L19.0085 44.1447C19.2448 44.3903 19.2821 44.7625 19.1073 45.0552C17.4294 47.8642 16.2659 50.9982 15.6196 54.4282C15.5604 54.742 15.7114 55.0586 15.9895 55.2156L25.8423 60.775C29.4781 62.7036 33.9312 62.5979 37.4719 60.4977C42.5876 57.4624 48.8075 57.2596 54.1108 59.954L55.0283 60.4201C58.1893 62.0263 61.8688 62.1408 65.1233 60.7342L75.9694 56.0222C76.2891 55.8835 76.4741 55.5417 76.408 55.1996C75.7191 51.6316 74.4068 48.2256 72.5081 45.099C72.3279 44.8024 72.3686 44.4223 72.613 44.1762L77.767 38.9843Z" fill="#DADADA"/>
</svg>
