<svg width="35" height="35" viewBox="0 0 35 35" fill="none" xmlns="http://www.w3.org/2000/svg">
<path d="M28.2108 17.2949H30.0781C30.3501 17.2949 30.6109 17.1868 30.8032 16.9945C30.9955 16.8022 31.1035 16.5414 31.1035 16.2695C31.1035 15.9975 30.9955 15.7367 30.8032 15.5444C30.6109 15.3521 30.3501 15.2441 30.0781 15.2441H28.2108C28.1598 15.241 28.1087 15.2486 28.0608 15.2663C28.013 15.2841 27.9693 15.3118 27.9327 15.3474C27.8961 15.3831 27.8674 15.426 27.8484 15.4734C27.8294 15.5209 27.8205 15.5717 27.8223 15.6228V15.8593H25.0879V15.6228C25.0879 15.3963 24.8897 15.2441 24.6632 15.2441H22.796C22.5241 15.2441 22.2633 15.3521 22.071 15.5444C21.8787 15.7367 21.7706 15.9975 21.7706 16.2695C21.7706 16.5414 21.8787 16.8022 22.071 16.9945C22.2633 17.1868 22.5241 17.2949 22.796 17.2949H24.6632C24.7752 17.2916 24.8818 17.2455 24.9608 17.166C25.0399 17.0865 25.0853 16.9796 25.0879 16.8676V16.6796H25.7715V18.7988H27.0703V16.6796H27.8223V16.8676C27.8223 17.094 27.9844 17.2949 28.2108 17.2949Z" fill="white"/>
<path d="M32.1783 27.7007C32.1421 27.6389 32.0904 27.5877 32.0284 27.5521C31.9663 27.5165 31.8959 27.4978 31.8244 27.4978C31.7528 27.4978 31.6825 27.5165 31.6204 27.5521C31.5583 27.5877 31.5066 27.6389 31.4704 27.7007L30.0281 30.1631C29.8428 30.4794 29.7443 30.839 29.7426 31.2056C29.7408 31.5721 29.8359 31.9326 30.0182 32.2507C30.2005 32.5687 30.4635 32.8329 30.7807 33.0167C31.0978 33.2005 31.4579 33.2973 31.8244 33.2973C32.191 33.2973 32.5511 33.2005 32.8682 33.0167C33.1854 32.8329 33.4484 32.5687 33.6307 32.2507C33.813 31.9326 33.908 31.5721 33.9063 31.2056C33.9046 30.839 33.8061 30.4794 33.6208 30.1631L32.1783 27.7007Z" fill="white"/>
<path d="M7.92422 16.748H7.24609V17.4426C7.24825 18.0034 7.47284 18.5403 7.87055 18.9356C8.26825 19.3308 8.80657 19.5521 9.36729 19.5508H10.0488V18.8857C10.047 18.3216 9.82303 17.7809 9.42535 17.3807C9.02766 16.9806 8.48833 16.7533 7.92422 16.748Z" fill="white"/>
<path d="M11.0356 16.6851C11.1253 16.2425 11.1196 15.7859 11.0186 15.3458C10.9176 14.9057 10.7238 14.4922 10.4501 14.1331C10.1764 14.4922 9.98259 14.9057 9.88161 15.3458C9.78063 15.7859 9.77485 16.2425 9.86463 16.6851C10.0954 16.8886 10.2929 17.1269 10.4501 17.3914C10.6073 17.1269 10.8049 16.8886 11.0356 16.6851Z" fill="white"/>
<path d="M6.28906 1.70898H14.5605V3.82812H6.28906V1.70898Z" fill="white"/>
<path d="M24.9512 19.209H27.8906V19.6875H24.9512V19.209Z" fill="white"/>
<path d="M1.09375 31.7112C1.09408 31.785 1.10905 31.8579 1.1378 31.9258C1.16654 31.9937 1.20848 32.0553 1.26118 32.1068C1.31389 32.1584 1.37631 32.199 1.44482 32.2263C1.51334 32.2535 1.58658 32.2669 1.66031 32.2656H19.24C19.3907 32.2688 19.5367 32.2124 19.6461 32.1086C19.7555 32.0048 19.8195 31.862 19.8242 31.7112V30.1465H1.09375V31.7112Z" fill="white"/>
<path d="M10.8691 18.8857V19.5508H11.533C12.6997 19.5508 13.6719 18.6093 13.6719 17.4426V16.748H12.9761C11.8094 16.748 10.8691 17.7191 10.8691 18.8857Z" fill="white"/>
<path d="M19.6027 8.14918L15.3447 4.75855C15.2428 4.68244 15.1179 4.64355 14.9908 4.64836H5.90953C5.78244 4.64348 5.65752 4.68235 5.55564 4.75849L1.30642 8.14528C1.23997 8.19787 1.18632 8.26484 1.14948 8.34115C1.11265 8.41746 1.09359 8.50112 1.09375 8.58586V29.3261H19.8242V8.58586C19.8226 8.50108 19.8019 8.41775 19.7635 8.34213C19.7252 8.2665 19.6702 8.20054 19.6027 8.14918ZM14.4922 17.4426C14.4922 19.0616 13.1523 20.371 11.533 20.371H10.8691V23.3868C10.8691 23.4955 10.8259 23.5999 10.749 23.6768C10.6721 23.7537 10.5678 23.7969 10.459 23.7969C10.3502 23.7969 10.2459 23.7537 10.169 23.6768C10.092 23.5999 10.0488 23.4955 10.0488 23.3868V20.371H9.36729C8.58908 20.3721 7.84226 20.0643 7.29076 19.5153C6.73926 18.9662 6.42817 18.2208 6.42578 17.4426V16.3598C6.42617 16.2481 6.46958 16.1409 6.54697 16.0604C6.62436 15.98 6.72979 15.9324 6.84134 15.9277H7.92422C8.28665 15.9306 8.64538 16.0009 8.98215 16.1349C8.9691 15.5942 9.06688 15.0565 9.26947 14.5551C9.47206 14.0536 9.77517 13.5989 10.1601 13.2191C10.1979 13.1807 10.2429 13.1501 10.2925 13.1291C10.3421 13.1081 10.3954 13.0971 10.4493 13.0967C10.5031 13.0963 10.5566 13.1066 10.6065 13.1268C10.6564 13.147 10.7018 13.1769 10.7402 13.2147C11.1253 13.5959 11.4283 14.0517 11.6309 14.5542C11.8335 15.0567 11.9312 15.5953 11.9181 16.137C12.2548 16.0023 12.6135 15.9313 12.9761 15.9277H14.0589C14.1723 15.9317 14.28 15.9785 14.3604 16.0586C14.4407 16.1388 14.4878 16.2464 14.4922 16.3598V17.4426Z" fill="white"/>
<path d="M30.9668 24.574V26.1816H32.6758V23.8272C32.6788 23.3927 32.5958 22.962 32.4318 22.5597C32.2677 22.1573 32.0257 21.7914 31.7198 21.4829C31.4138 21.1745 31.0499 20.9295 30.6489 20.7622C30.248 20.5948 29.8179 20.5084 29.3834 20.5078H20.6445V22.2852H24.1696C24.2745 22.2859 24.3751 22.3266 24.4511 22.3988C24.5271 22.471 24.5729 22.5694 24.579 22.6741C24.6054 23.124 24.8025 23.5469 25.1303 23.8563C25.458 24.1656 25.8915 24.3381 26.3422 24.3385C26.7929 24.3389 27.2267 24.1671 27.5549 23.8583C27.8832 23.5495 28.0811 23.127 28.1082 22.6771C28.1143 22.5721 28.1598 22.4733 28.2358 22.4006C28.3118 22.3279 28.4125 22.2866 28.5176 22.2852H28.6639C29.9196 22.2852 30.9668 23.3183 30.9668 24.574Z" fill="white"/>
</svg>
