<svg xmlns="http://www.w3.org/2000/svg" viewBox="0 0 128.39275 41.07073">
  <defs>
    <style>
      .cls-1 {
        fill: #f6f6f6;
      }

      .cls-2 {
        fill: #ededed;
      }

      .cls-3, .cls-4, .cls-5, .cls-6, .cls-7 {
        fill: #76ccf4;
      }

      .cls-3 {
        opacity: 0.61;
      }

      .cls-4 {
        opacity: 0.53;
      }

      .cls-5 {
        opacity: 0.39;
      }

      .cls-6 {
        opacity: 0.46;
      }

      .cls-7 {
        opacity: 0.6;
      }
    </style>
  </defs>
  <title>Ресурс 1</title>
  <g id="Слой_2" data-name="Слой 2">
    <g id="Слой_1-2" data-name="Слой 1">
      <g>
        <g>
          <g>
            <path class="cls-1" d="M68.0446,23.12534H60.97728v1.49635c0,.18892.10315.29207.32685.29207h4.66V23.968l2.02891.30947v.56735c0,.91161-.30946,1.80582-1.94315,1.80582H60.82254c-1.3758,0-1.92576-.60214-1.92576-1.84V20.04748c0-1.46156.63632-1.909,2.0631-1.909h5.10738c1.49575,0,1.97734.51638,1.97734,1.82321Zm-2.08049-2.92313a.28446.28446,0,0,0-.32686-.32686H61.30413c-.2237,0-.32685.10316-.32685.30947v1.30683h4.98683Z"/>
            <path class="cls-1" d="M75.49216,27.30432V25.87694H72.80953c-1.3926,0-1.99473-.499-1.99473-1.96054V20.87272c0-1.35841.49838-1.97734,1.99473-1.97734h2.68263V17.50279h1.771v1.39259H79.9974c1.49575,0,1.99473.58475,1.99473,1.96055V23.899c0,1.44478-.55056,1.97794-1.99473,1.97794H77.26319v1.42738Zm-2.25262-6.56894c-.25789,0-.32686.069-.32686.32686v2.64785c0,.25788.05158.32685.30947.32685h2.27V20.73538Zm4.041,0v3.30156h2.321c.20631,0,.30947-.10315.30947-.32685V21.06224c0-.25789-.06837-.32686-.32626-.32686Z"/>
            <path class="cls-1" d="M94.0313,24.29483c0,1.96055-.48159,2.35578-2.408,2.35578h-4.522c-1.92636,0-2.339-.48159-2.339-2.33839V20.49429c0-1.87419.41262-2.35578,2.39056-2.35578h4.47045c1.73685,0,2.408.41322,2.408,1.909Zm-7.17108.18892c0,.25789.05157.32686.30946.32686h4.45366c.25849,0,.31007-.069.31007-.32686V20.30537c0-.25789-.069-.32686-.34425-.32686H87.20447c-.27528,0-.34425.069-.34425.32686Z"/>
            <path class="cls-1" d="M101.54663,19.97851v6.6721H99.44874v-6.6721h-3.4563v-1.84h9.01048v1.84Z"/>
            <path class="cls-1" d="M116.16467,23.12534h-7.06733v1.49635c0,.18892.10316.29207.32686.29207h4.66V23.968l2.02892.30947v.56735c0,.91161-.30946,1.80582-1.94315,1.80582h-5.22733c-1.3758,0-1.92576-.60214-1.92576-1.84V20.04748c0-1.46156.63632-1.909,2.0631-1.909h5.10738c1.49575,0,1.97734.51638,1.97734,1.82321Zm-2.0805-2.92313a.28445.28445,0,0,0-.32685-.32686H109.4242c-.2237,0-.32686.10316-.32686.30947v1.30683h4.98683Z"/>
            <path class="cls-1" d="M125.38326,26.65061,121.17009,22.919v3.73158H119.0896v-8.5121h2.08049V21.6122l3.9211-3.47369h2.73361l-4.591,3.98946,5.159,4.52264Z"/>
          </g>
          <path class="cls-1" d="M43.51965,24.27844l4.81471-9.57783H50.0712l4.64258,9.57783h.87682v2.74648H53.837V26.17H44.39647v.8549H42.64223V24.27844Zm8.85575,0-3.25-7.17048-3.33635,7.17048Z"/>
        </g>
        <path class="cls-2" d="M15.00487,38.05944a2.368,2.368,0,0,1-1.91316-.97037L.47319,21.722A2.36046,2.36046,0,0,1,.451,18.92117L13.1031,3.51087a2.35353,2.35353,0,0,1,2.72641-.78805l18.18709,6.945a2.37182,2.37182,0,0,1,1.51734,2.20285V29.02917a2.36542,2.36542,0,0,1-1.54552,2.213l-18.1769,6.6739A2.34073,2.34073,0,0,1,15.00487,38.05944Zm-.015-34.26309a1.13237,1.13237,0,0,0-.9158.4654L1.422,19.672a1.11882,1.11882,0,0,0,.02219,1.299L14.06268,36.33819a1.14852,1.14852,0,0,0,1.32543.42522L33.565,30.08951a1.13355,1.13355,0,0,0,.74068-1.06034V11.87064a1.13481,1.13481,0,0,0-.72689-1.05494L15.3917,3.87072A1.12064,1.12064,0,0,0,14.98988,3.79635Z"/>
        <path class="cls-2" d="M18.10133,41.07073a2.35721,2.35721,0,0,1-1.17909-.31486l-15.74315-9.089A2.36421,2.36421,0,0,1,0,29.62471V11.446A2.3654,2.3654,0,0,1,1.17849,9.40451L16.92224.31486a2.36516,2.36516,0,0,1,2.35817,0L35.02357,9.40391A2.36639,2.36639,0,0,1,36.20205,11.446V29.62471a2.36493,2.36493,0,0,1-1.17848,2.04212l-15.74316,9.089A2.35721,2.35721,0,0,1,18.10133,41.07073Zm0-39.84306a1.12864,1.12864,0,0,0-.565.15113L1.79322,10.46785a1.1336,1.1336,0,0,0-.565.97817V29.62471a1.13214,1.13214,0,0,0,.565.97818l15.74315,9.089a1.13146,1.13146,0,0,0,1.12991,0l15.74315-9.089a1.13285,1.13285,0,0,0,.56436-.97818V11.446a1.13458,1.13458,0,0,0-.565-.97877L18.66628,1.3788A1.1286,1.1286,0,0,0,18.10133,1.22767Z"/>
        <g>
          <polygon class="cls-3" points="15.524 7.319 6.082 20.314 23.162 22.921 15.524 7.319"/>
          <polygon class="cls-4" points="30.801 13.153 6.082 20.314 15.524 33.31 30.801 13.153"/>
          <polygon class="cls-5" points="23.162 10.211 15.524 33.31 30.747 27.656 23.162 10.211"/>
          <polygon class="cls-6" points="10.379 26.613 15.524 7.319 30.801 13.153 10.379 26.613"/>
        </g>
        <polygon class="cls-7" points="30.801 13.153 30.747 27.656 6.082 20.314 30.801 13.153"/>
      </g>
    </g>
  </g>
</svg>
