<svg width="200" height="184" viewBox="0 0 200 184" fill="none" xmlns="http://www.w3.org/2000/svg">
<path d="M192.049 101.572C195.434 99.7565 199.68 91.912 199.68 91.912C199.68 91.912 190.799 91.1269 187.414 92.9483C187.081 93.1304 186.811 93.4005 186.497 93.614C186.955 90.4549 187.263 87.2455 187.389 83.9858C189.511 84.5574 192.57 83.5964 194.787 81.6306C197.67 79.0807 200 70.4762 200 70.4762C200 70.4762 191.182 71.7575 188.299 74.3074C187.941 74.6214 187.696 75.0171 187.382 75.3751C187.181 71.9961 186.754 68.68 186.189 65.414C188.362 65.4266 191.063 63.7874 192.765 61.407C194.988 58.273 195.302 49.3671 195.302 49.3671C195.302 49.3671 186.999 52.6079 184.776 55.7419C184.543 56.0685 184.418 56.4453 184.223 56.797C183.501 54.2283 182.64 51.716 181.686 49.2477C183.859 48.8897 186.252 46.7606 187.451 44.0537C189.034 40.5491 187.627 31.7499 187.627 31.7499C187.627 31.7499 180.103 36.5358 178.533 40.0403C178.351 40.436 178.288 40.8631 178.162 41.2776C176.825 38.6335 175.349 36.0647 173.76 33.5839C175.732 32.7611 177.61 30.3619 178.344 27.6424C179.362 23.9306 176.605 15.4643 176.605 15.4643C176.605 15.4643 169.922 21.3618 168.911 25.0736C168.779 25.5447 168.779 26.0346 168.723 26.5182C166.656 23.8992 164.458 21.3932 162.115 19.0254C163.905 17.8132 165.243 14.9744 165.35 12.0979C165.488 8.26041 160.878 0.635742 160.878 0.635742C160.878 0.635742 155.715 7.9087 155.565 11.7462C155.552 12.1858 155.565 12.6317 155.615 13.0651C153.687 11.4698 151.702 9.94362 149.642 8.51164C149.083 6.61489 147.563 4.59881 145.472 3.33641C142.187 1.35801 133.281 1.69717 133.281 1.69717C133.281 1.69717 137.125 9.73008 140.422 11.7148C141.879 12.594 143.537 13.0337 145.082 13.1342C146.652 14.2019 148.21 15.3073 149.699 16.4817C145.691 16.9088 139.103 20.8782 139.103 20.8782C139.103 20.8782 146.364 26.0346 150.207 26.179C153.153 26.2858 156.13 25.105 157.417 23.3402C159 24.9292 160.495 26.6061 161.952 28.3207C157.907 27.9187 150.798 30.2175 150.798 30.2175C150.798 30.2175 156.689 36.8937 160.407 37.9049C163.302 38.69 166.499 38.1687 168.126 36.6676C169.307 38.4827 170.393 40.3418 171.417 42.2511C167.586 41.0829 159.823 42.3014 159.823 42.3014C159.823 42.3014 164.602 49.8193 168.107 51.3894C170.72 52.5639 173.822 52.6204 175.7 51.5716C176.335 53.2108 176.906 54.8814 177.434 56.5709C173.935 54.6428 165.972 54.335 165.972 54.335C165.972 54.335 169.225 62.6317 172.359 64.8551C174.721 66.532 177.798 67.1977 179.858 66.488C180.247 68.7176 180.549 70.9787 180.769 73.2711C177.654 70.6898 170.312 68.6862 170.312 68.6862C170.312 68.6862 171.599 77.5042 174.155 80.3745C176.046 82.5099 178.841 83.8351 180.995 83.653C180.913 85.9391 180.769 88.2127 180.505 90.4549C178.244 87.1701 171.216 83.3326 171.216 83.3326C171.216 83.3326 170.431 92.2134 172.259 95.5924C173.722 98.3182 176.416 100.278 178.671 100.315C178.175 102.3 177.647 104.285 177.007 106.213C175.399 102.646 168.434 97.7153 168.434 97.7153C168.434 97.7153 166.619 106.445 168.044 110.013C169.074 112.644 171.235 114.836 173.295 115.408C172.453 117.185 171.593 118.937 170.632 120.633C169.721 116.84 163.786 110.697 163.786 110.697C163.786 110.697 160.376 118.931 161.098 122.706C161.613 125.457 163.29 127.982 165.18 128.974C163.956 130.632 162.693 132.259 161.343 133.823C161.28 129.947 156.519 122.605 156.519 122.605C156.519 122.605 151.589 130.029 151.564 133.86C151.551 136.712 152.732 139.563 154.447 140.869C152.964 142.22 151.438 143.539 149.868 144.782C149.874 144.707 149.9 144.65 149.906 144.575C150.364 140.763 146.414 132.767 146.414 132.767C146.414 132.767 140.661 139.563 140.196 143.369C139.863 145.994 140.61 148.67 141.961 150.24C140.014 151.427 138.035 152.545 135.988 153.563C136.195 153.01 136.377 152.445 136.49 151.86C137.225 148.086 133.853 139.839 133.853 139.839C133.853 139.839 127.622 146.214 126.894 149.989C126.385 152.576 126.944 155.302 128.175 156.967C124.589 158.317 120.864 159.36 117.071 160.22C114.841 152.872 108.083 147.483 100.013 147.483C91.9357 147.483 85.184 152.859 82.9544 160.22C79.1609 159.372 75.4365 158.317 71.8503 156.967C73.0813 155.296 73.6403 152.576 73.1315 149.989C72.403 146.208 66.1726 139.839 66.1726 139.839C66.1726 139.839 62.7936 148.086 63.5347 151.86C63.6478 152.445 63.8299 153.01 64.0372 153.563C61.9897 152.545 60.005 151.427 58.0643 150.24C59.4021 148.67 60.1558 145.994 59.8292 143.369C59.3644 139.563 53.6051 132.767 53.6051 132.767C53.6051 132.767 49.6608 140.75 50.1193 144.575C50.1256 144.65 50.1507 144.707 50.157 144.782C48.5806 143.539 47.0607 142.226 45.5784 140.869C47.2868 139.563 48.4738 136.705 48.455 133.86C48.4361 130.016 43.4996 122.605 43.4996 122.605C43.4996 122.605 38.7451 129.947 38.6823 133.823C37.3383 132.259 36.0696 130.626 34.8449 128.974C36.7353 127.982 38.406 125.457 38.9273 122.706C39.6558 118.919 36.2392 110.697 36.2392 110.697C36.2392 110.697 30.304 116.846 29.3933 120.633C28.4386 118.931 27.5719 117.185 26.7366 115.408C28.8029 114.83 30.9509 112.644 31.9872 110.013C33.4066 106.433 31.5915 97.7153 31.5915 97.7153C31.5915 97.7153 24.62 102.639 23.0122 106.213C22.3716 104.272 21.844 102.3 21.3541 100.315C23.6026 100.278 26.2969 98.3182 27.7603 95.5924C29.588 92.2072 28.8092 83.3326 28.8092 83.3326C28.8092 83.3326 21.7686 87.1701 19.5139 90.4549C19.2501 88.219 19.1056 85.9454 19.024 83.653C21.172 83.8351 23.9731 82.5036 25.8636 80.3745C28.4198 77.5042 29.7073 68.6862 29.7073 68.6862C29.7073 68.6862 22.3716 70.6898 19.2501 73.2711C19.4574 70.9849 19.7651 68.7176 20.1608 66.488C22.2145 67.1977 25.2983 66.532 27.6598 64.8551C30.7939 62.638 34.041 54.335 34.041 54.335C34.041 54.335 26.0771 54.6428 22.5788 56.5709C23.1064 54.8752 23.6842 53.2108 24.3186 51.5716C26.2027 52.6204 29.3054 52.5576 31.9055 51.3894C35.4164 49.8255 40.196 42.3014 40.196 42.3014C40.196 42.3014 32.408 41.1018 28.5705 42.27C29.6006 40.3606 30.6934 38.4953 31.8679 36.6865C33.5008 38.1813 36.6977 38.7088 39.593 37.9238C43.3049 36.9126 49.2024 30.2363 49.2024 30.2363C49.2024 30.2363 42.0801 27.9439 38.0417 28.3458C39.4925 26.6312 40.9873 24.9543 42.57 23.3653C43.8638 25.1302 46.8471 26.3046 49.7865 26.2041C53.6239 26.066 60.8906 20.9033 60.8906 20.9033C60.8906 20.9033 54.3022 16.9339 50.2952 16.5069C51.79 15.3324 53.3413 14.2333 54.9177 13.1656C56.4565 13.0651 58.1208 12.6254 59.5779 11.7462C62.869 9.76148 66.7127 1.72857 66.7127 1.72857C66.7127 1.72857 57.8131 1.38314 54.522 3.36153C52.4306 4.61765 50.9107 6.64001 50.3454 8.53048C48.2854 9.96246 46.3007 11.4949 44.3788 13.0839C44.4165 12.6443 44.4354 12.2046 44.4228 11.765C44.2784 7.92126 39.1157 0.654584 39.1157 0.654584C39.1157 0.654584 34.4932 8.27297 34.6376 12.1167C34.7444 14.9932 36.0759 17.8321 37.8658 19.038C35.5295 21.412 33.3312 23.918 31.2649 26.537C31.2021 26.0534 31.2021 25.5635 31.0765 25.0925C30.0653 21.3806 23.3827 15.4831 23.3827 15.4831C23.3827 15.4831 20.6193 23.9557 21.6367 27.6612C22.3778 30.387 24.2557 32.7862 26.2341 33.609C24.6451 36.0898 23.1692 38.646 21.8314 41.3027C21.7058 40.8882 21.643 40.4611 21.4672 40.0655C19.8907 36.5609 12.3665 31.775 12.3665 31.775C12.3665 31.775 10.9597 40.5679 12.5424 44.0725C13.7546 46.7732 16.1475 48.9086 18.308 49.2666C17.3596 51.7286 16.4992 54.2408 15.7706 56.8096C15.5759 56.4579 15.4503 56.081 15.2179 55.7544C12.9946 52.6141 4.69162 49.3733 4.69162 49.3733C4.69162 49.3733 5.00565 58.2793 7.23527 61.4133C8.93104 63.7874 11.638 65.4329 13.8111 65.4203C13.2333 68.6862 12.8125 72.0024 12.6115 75.3814C12.3037 75.0234 12.0462 74.6277 11.6945 74.3137C8.81799 71.7575 0 70.4888 0 70.4888C0 70.4888 2.32383 79.0932 5.20663 81.6432C7.42369 83.609 10.4824 84.5699 12.6052 83.9984C12.7308 87.258 13.026 90.4611 13.497 93.6266C13.183 93.413 12.9192 93.143 12.5801 92.9608C9.19483 91.1332 0.314031 91.9245 0.314031 91.9245C0.314031 91.9245 4.55973 99.7627 7.94498 101.59C10.3693 102.89 13.2898 103.161 15.2431 102.375C15.8711 104.85 16.5871 107.268 17.4224 109.661C17.1398 109.517 16.9011 109.309 16.606 109.196C13.0323 107.783 4.3085 109.611 4.3085 109.611C4.3085 109.611 9.43977 116.89 13.0197 118.297C15.7958 119.402 19.024 119.233 20.814 117.945C21.9508 120.357 23.1755 122.712 24.5133 125.005C24.2306 124.923 23.9417 124.835 23.6528 124.785C19.8782 124.062 11.6443 127.473 11.6443 127.473C11.6443 127.473 18.0442 133.678 21.8251 134.4C24.7959 134.966 27.9613 134.174 29.4561 132.535C31.0702 134.74 32.7723 136.856 34.5811 138.91C34.3361 138.897 34.0975 138.86 33.8525 138.866C30.0088 138.891 22.5914 143.834 22.5914 143.834C22.5914 143.834 30.0653 148.676 33.9091 148.664C36.8735 148.639 39.8191 147.313 41.0187 145.473C42.7522 147.068 44.5296 148.601 46.3824 150.052C46.2191 150.064 46.0558 150.027 45.8925 150.045C42.0739 150.516 35.2845 156.282 35.2845 156.282C35.2845 156.282 43.2672 160.233 47.0795 159.761C50.2387 159.372 53.1906 157.5 53.9505 155.34C55.4327 156.257 56.8898 157.23 58.4286 158.066C54.6539 159.636 49.5541 164.616 49.5541 164.616C49.5541 164.616 57.7943 167.964 61.5626 167.217C64.6087 166.626 67.3533 164.629 68.0505 162.494C72.5977 164.296 77.3395 165.709 82.2133 166.739C82.8728 176.028 90.5414 183.377 99.9937 183.377C109.446 183.377 117.115 176.028 117.774 166.739C122.648 165.709 127.39 164.296 131.943 162.494C132.628 164.629 135.379 166.626 138.425 167.217C142.199 167.964 150.446 164.591 150.446 164.591C150.446 164.591 145.346 159.611 141.571 158.041C143.11 157.199 144.567 156.251 146.049 155.315C146.809 157.469 149.768 159.353 152.92 159.736C156.733 160.207 164.722 156.257 164.722 156.257C164.722 156.257 157.926 150.491 154.114 150.014C153.957 150.001 153.787 150.039 153.624 150.027C155.477 148.576 157.254 147.043 158.988 145.448C160.187 147.288 163.133 148.613 166.104 148.639C169.941 148.664 177.421 143.809 177.421 143.809C177.421 143.809 170.004 138.866 166.16 138.841C165.915 138.841 165.676 138.872 165.431 138.885C167.24 136.85 168.942 134.714 170.556 132.51C172.051 134.149 175.217 134.947 178.187 134.375C181.968 133.659 188.368 127.448 188.368 127.448C188.368 127.448 180.134 124.037 176.36 124.753C176.071 124.81 175.782 124.891 175.499 124.979C176.837 122.7 178.062 120.344 179.199 117.92C180.982 119.208 184.211 119.371 186.993 118.272C190.573 116.865 195.704 109.579 195.704 109.579C195.704 109.579 186.98 107.758 183.407 109.171C183.111 109.297 182.873 109.491 182.59 109.636C183.425 107.256 184.135 104.819 184.77 102.35C186.704 103.142 189.618 102.872 192.049 101.572Z" fill="white"/>
<path d="M87.7 91.37V98.16H65.58L90.15 79.61C92.74 77.65 94.28 75.69 94.28 72.54V66.87C94.28 61.83 91.62 59.31 86.37 59.31H61.31C56.34 59.31 52.84 61.62 52.84 67.43V75.41L61.73 76.95V67.08H85.6V72.82L54.73 95.85C52.98 97.18 51.72 99.21 51.72 101.45V106H88.47C93.79 106 96.17 102.78 96.17 98.37V92.91L87.7 91.37ZM107.665 59.31L104.865 84.86H134.335C136.365 84.86 137.205 85.42 137.205 87.45V94.45C137.205 96.69 136.645 98.16 133.355 98.16H116.065C111.585 98.16 106.825 97.6 102.625 95.71L104.865 104.46C107.805 105.72 112.355 106 115.645 106H135.245C143.995 106 146.095 100.54 146.095 95.15V86.61C146.095 81.01 143.085 77.02 136.435 77.02H113.685L114.595 67.08H141.755L143.015 59.31H107.665Z" fill="white"/>
</svg>
