<svg width="19" height="19" viewBox="0 0 19 19" fill="none" xmlns="http://www.w3.org/2000/svg">
<path d="M10.2414 14.778L18.6965 6.32272C18.8922 6.12716 19 5.86611 19 5.58775C19 5.3094 18.8922 5.04834 18.6965 4.85278L18.074 4.23011C17.6683 3.82494 17.009 3.82494 16.604 4.23011L9.50394 11.3302L2.39599 4.22224C2.20028 4.02668 1.93937 3.9187 1.66117 3.9187C1.38266 3.9187 1.12176 4.02668 0.925894 4.22224L0.303534 4.84491C0.107819 5.04062 0 5.30152 0 5.57988C0 5.85823 0.107819 6.11929 0.303534 6.31484L8.76634 14.778C8.96268 14.974 9.22481 15.0817 9.50348 15.081C9.78322 15.0817 10.0452 14.974 10.2414 14.778Z" fill="#C7C7C7"/>
</svg>
