<svg width="23" height="22" viewBox="0 0 23 22" fill="none" xmlns="http://www.w3.org/2000/svg">
<g clip-path="url(#clip0)">
<path d="M11.8624 17.1114L21.6525 7.32114C21.8791 7.0947 22.004 6.79243 22.004 6.47012C22.004 6.14782 21.8791 5.84554 21.6525 5.61911L20.9317 4.89812C20.462 4.42897 19.6986 4.42897 19.2297 4.89812L11.0085 13.1193L2.77827 4.889C2.55165 4.66256 2.24956 4.53754 1.92743 4.53754C1.60495 4.53754 1.30285 4.66256 1.07606 4.889L0.355427 5.60998C0.128811 5.8366 0.00396729 6.13869 0.00396729 6.461C0.00396729 6.78331 0.128811 7.08558 0.355427 7.31202L10.1545 17.1114C10.3818 17.3384 10.6853 17.4631 11.008 17.4623C11.3319 17.4631 11.6353 17.3384 11.8624 17.1114Z" fill="white"/>
</g>
<defs>
<clipPath id="clip0">
<rect x="22.004" width="22" height="22" transform="rotate(90 22.004 0)" fill="white"/>
</clipPath>
</defs>
</svg>
