<svg width="20" height="20" viewBox="0 0 20 20" fill="none" xmlns="http://www.w3.org/2000/svg">
<g opacity="0.65">
<g clip-path="url(#clip0)">
<path d="M15.5558 9.22009L6.65555 0.319998C6.4497 0.113983 6.1749 0.00048831 5.8819 0.000488306C5.58889 0.000488302 5.3141 0.113983 5.10824 0.319998L4.4528 0.975277C4.0263 1.40227 4.0263 2.09624 4.4528 2.52258L11.9266 9.99634L4.44451 17.4784C4.23866 17.6844 4.125 17.959 4.125 18.2519C4.125 18.5451 4.23866 18.8197 4.44451 19.0259L5.09995 19.681C5.30597 19.887 5.5806 20.0005 5.8736 20.0005C6.16661 20.0005 6.4414 19.887 6.64726 19.681L15.5558 10.7728C15.7621 10.5661 15.8755 10.2902 15.8748 9.99683C15.8755 9.70236 15.7621 9.42659 15.5558 9.22009Z" fill="#C1C1C1"/>
</g>
</g>
<defs>
<clipPath id="clip0">
<rect y="0.000488281" width="20" height="20" fill="white"/>
</clipPath>
</defs>
</svg>
