<svg width="194" height="54" viewBox="0 0 194 54" fill="none" xmlns="http://www.w3.org/2000/svg">
<path d="M96.3183 29.7389H84.8423V32.1634C84.8423 32.4866 85.004 32.6483 85.3272 32.6483H92.924V31.1936L96.1567 31.6785V32.6483C96.1567 34.103 95.6718 35.5577 93.0856 35.5577H84.6807C82.4178 35.5577 81.6097 34.5879 81.6097 32.6483V24.7282C81.6097 22.3037 82.5795 21.6572 85.004 21.6572H93.2473C95.6718 21.6572 96.4799 22.4654 96.4799 24.5666V29.7389H96.3183ZM92.924 24.8899C92.924 24.5666 92.7624 24.405 92.4391 24.405H85.4889C85.1656 24.405 85.004 24.5666 85.004 24.8899V26.9911H93.0856V24.8899H92.924Z" fill="#F5F5F5"/>
<path d="M108.441 36.3659V34.103H104.077C101.814 34.103 100.844 33.2948 100.844 30.8703V26.0213C100.844 23.7584 101.652 22.7886 104.077 22.7886H108.441V20.5258H111.35V22.7886H115.714C118.139 22.7886 118.947 23.7584 118.947 26.0213V30.8703C118.947 33.1332 117.977 34.103 115.714 34.103H111.35V36.3659H108.441ZM104.723 25.8597C104.238 25.8597 104.238 26.0213 104.238 26.3446V30.547C104.238 31.0319 104.4 31.0319 104.723 31.0319H108.441V25.698H104.723V25.8597ZM111.35 25.8597V31.1936H115.068C115.391 31.1936 115.553 31.0319 115.553 30.7087V26.3446C115.553 25.8597 115.391 25.8597 115.068 25.8597H111.35Z" fill="#F5F5F5"/>
<path d="M138.343 31.5168C138.343 34.7495 137.535 35.396 134.464 35.396H127.19C124.119 35.396 123.473 34.5879 123.473 31.6785V25.5364C123.473 22.4654 124.119 21.6572 127.352 21.6572H134.626C137.373 21.6572 138.505 22.3037 138.505 24.7282V31.5168H138.343ZM126.705 31.8401C126.705 32.325 126.867 32.325 127.19 32.325H134.464C134.949 32.325 134.949 32.1634 134.949 31.8401V25.0515C134.949 24.5666 134.787 24.5666 134.464 24.5666H127.352C126.867 24.5666 126.867 24.7282 126.867 25.0515V31.8401H126.705Z" fill="#F5F5F5"/>
<path d="M150.466 24.5666V35.396H147.071V24.5666H141.414V21.6572H155.961V24.5666H150.466Z" fill="#F5F5F5"/>
<path d="M174.064 29.7389H162.588V32.1634C162.588 32.4866 162.75 32.6483 163.073 32.6483H170.67V31.1936L173.902 31.6785V32.6483C173.902 34.103 173.418 35.5577 170.831 35.5577H162.426C160.164 35.5577 159.355 34.5879 159.355 32.6483V24.7282C159.355 22.3037 160.325 21.6572 162.75 21.6572H170.993C173.418 21.6572 174.226 22.4654 174.226 24.5666V29.7389H174.064ZM170.831 24.8899C170.831 24.5666 170.67 24.405 170.346 24.405H163.235C162.911 24.405 162.75 24.5666 162.75 24.8899V26.9911H170.831V24.8899Z" fill="#F5F5F5"/>
<path d="M189.096 35.396L182.307 29.4156V35.396H178.913V21.6572H182.307V27.3144L188.611 21.6572H192.975L185.54 28.1225L193.945 35.396H189.096Z" fill="#F5F5F5"/>
<path d="M56.7181 31.5168L64.4765 16H67.2243L74.6594 31.5168H76.1141V36.0426H73.2047V34.5879H58.1728V36.0426H55.2634V31.6785H56.7181V31.5168ZM71.1035 31.5168L65.9312 19.8792L60.5973 31.5168H71.1035Z" fill="#F5F5F5"/>
<path d="M19.8209 50C18.8928 50 17.8322 49.6035 17.3018 48.6782L0.596615 28.3221C-0.198872 27.1324 -0.198872 25.6784 0.596615 24.621L17.3018 4.26488C18.0973 3.20742 19.5557 2.67869 20.8815 3.20742L45.0113 12.328C46.2045 12.7246 47 13.9142 47 15.236V37.9714C47 39.2932 46.2045 40.4829 45.0113 40.8794L20.8815 49.7356C20.4838 49.8678 20.2186 50 19.8209 50ZM19.8209 4.66143C19.2906 4.66143 18.8928 4.92579 18.6276 5.32234L1.78984 25.6784C1.3921 26.2072 1.3921 26.8681 1.78984 27.3968L18.4951 47.7529C18.8928 48.2816 19.6883 48.546 20.2186 48.2816L44.3484 39.4254C44.8787 39.161 45.2764 38.6323 45.2764 37.9714V15.3682C45.2764 14.7073 44.8787 14.1786 44.3484 13.9142L20.3512 4.79361C20.086 4.66143 19.9535 4.66143 19.8209 4.66143Z" fill="white"/>
<path d="M24 54C23.4696 54 22.9392 53.8683 22.4088 53.6049L1.59116 41.6195C0.662983 41.0927 0 40.039 0 38.9854V15.0146C0 13.961 0.662983 12.9073 1.59116 12.3805L22.4088 0.395122C23.337 -0.131707 24.5304 -0.131707 25.5912 0.395122L46.4088 12.3805C47.337 12.9073 48 13.961 48 15.0146V38.9854C48 40.039 47.337 41.0927 46.4088 41.6195L25.5912 53.6049C25.0608 53.8683 24.5304 54 24 54ZM24 1.44878C23.7348 1.44878 23.4696 1.58049 23.2044 1.7122L2.38674 13.6976C1.98895 13.961 1.59116 14.4878 1.59116 15.0146V38.9854C1.59116 39.5122 1.85635 40.039 2.38674 40.3024L23.2044 52.2878C23.6022 52.5512 24.2652 52.5512 24.663 52.2878L45.6133 40.1707C46.0111 39.9073 46.4088 39.3805 46.4088 38.8537V15.0146C46.4088 14.4878 46.1437 13.961 45.6133 13.6976L24.663 1.7122C24.5304 1.58049 24.2652 1.44878 24 1.44878Z" fill="white"/>
<path d="M20.559 11.9147L28.632 28.3253L10.6333 25.5461L20.559 11.9147ZM20.8237 9.26788L8.38343 26.4725L30.8818 29.9135L20.8237 9.26788Z" fill="white"/>
<path d="M37.6314 19.4583L20.8237 41.4274L10.5009 27.2666L37.6314 19.4583ZM41.0723 17.0761L8.38343 26.6049L20.8237 43.8095L41.0723 17.0761Z" fill="white"/>
<path d="M31.1466 16.8115L39.2195 35.4719L22.9413 41.5597L31.1466 16.8115ZM30.8819 13.1058L20.8238 43.6772L40.94 36.1336L30.8819 13.1058Z" fill="white"/>
<path d="M21.7502 11.1207L38.1608 17.3408L16.1918 31.7663L21.7502 11.1207ZM20.8238 9.26788L14.0743 34.8102L41.0723 16.9438L20.8238 9.26788Z" fill="white"/>
<path d="M39.7489 18.7966V34.4132L13.1478 26.4725L39.7489 18.7966ZM41.0723 17.0761L8.38343 26.6049L41.0723 36.266V17.0761Z" fill="white"/>
</svg>
