<svg width="48" height="54" viewBox="0 0 48 54" fill="none" xmlns="http://www.w3.org/2000/svg">
<path d="M19.8209 50C18.8928 50 17.8322 49.6035 17.3018 48.6782L0.596615 28.3221C-0.198872 27.1324 -0.198872 25.6784 0.596615 24.621L17.3018 4.26488C18.0973 3.20742 19.5557 2.67869 20.8815 3.20742L45.0113 12.328C46.2045 12.7246 47 13.9142 47 15.236V37.9714C47 39.2932 46.2045 40.4829 45.0113 40.8794L20.8815 49.7356C20.4838 49.8678 20.2186 50 19.8209 50ZM19.8209 4.66143C19.2906 4.66143 18.8928 4.92579 18.6276 5.32234L1.78984 25.6784C1.3921 26.2072 1.3921 26.8681 1.78984 27.3968L18.4951 47.7529C18.8928 48.2816 19.6883 48.546 20.2186 48.2816L44.3484 39.4254C44.8787 39.161 45.2764 38.6323 45.2764 37.9714V15.3682C45.2764 14.7073 44.8787 14.1786 44.3484 13.9142L20.3512 4.79361C20.086 4.66143 19.9535 4.66143 19.8209 4.66143Z" fill="white"/>
<path d="M24 54C23.4696 54 22.9392 53.8683 22.4088 53.6049L1.59116 41.6195C0.662983 41.0927 0 40.039 0 38.9854V15.0146C0 13.961 0.662983 12.9073 1.59116 12.3805L22.4088 0.395122C23.337 -0.131707 24.5304 -0.131707 25.5912 0.395122L46.4088 12.3805C47.337 12.9073 48 13.961 48 15.0146V38.9854C48 40.039 47.337 41.0927 46.4088 41.6195L25.5912 53.6049C25.0608 53.8683 24.5304 54 24 54ZM24 1.44878C23.7348 1.44878 23.4696 1.58049 23.2044 1.7122L2.38674 13.6976C1.98895 13.961 1.59116 14.4878 1.59116 15.0146V38.9854C1.59116 39.5122 1.85635 40.039 2.38674 40.3024L23.2044 52.2878C23.6022 52.5512 24.2652 52.5512 24.663 52.2878L45.6133 40.1707C46.0111 39.9073 46.4088 39.3805 46.4088 38.8537V15.0146C46.4088 14.4878 46.1437 13.961 45.6133 13.6976L24.663 1.7122C24.5304 1.58049 24.2652 1.44878 24 1.44878Z" fill="white"/>
<path d="M20.5584 11.9147L28.6314 28.3253L10.6327 25.5461L20.5584 11.9147ZM20.8231 9.26782L8.38281 26.4725L30.8812 29.9134L20.8231 9.26782Z" fill="white"/>
<path d="M37.6307 19.4584L20.8231 41.4274L10.5003 27.2666L37.6307 19.4584ZM41.0717 17.0762L8.38281 26.6049L20.8231 43.8096L41.0717 17.0762Z" fill="white"/>
<path d="M31.147 16.8116L39.22 35.472L22.9417 41.5598L31.147 16.8116ZM30.8823 13.106L20.8242 43.6773L40.9404 36.1337L30.8823 13.106Z" fill="white"/>
<path d="M21.7501 11.1206L38.1608 17.3408L16.1917 31.7662L21.7501 11.1206ZM20.8237 9.26782L14.0742 34.8101L41.0723 16.9438L20.8237 9.26782Z" fill="white"/>
<path d="M39.7482 18.7966V34.4132L13.1472 26.4726L39.7482 18.7966ZM41.0717 17.0762L8.38281 26.6049L41.0717 36.266V17.0762Z" fill="white"/>
</svg>
