<svg width="193" height="63" viewBox="0 0 193 63" fill="none" xmlns="http://www.w3.org/2000/svg">
<path d="M70.1951 44.0016V44.5927C70.1951 45.1838 69.8995 45.6271 69.1606 45.6271H66.3528C65.6139 45.6271 65.3184 45.3316 65.3184 44.5927V41.9326C65.3184 41.1938 65.6139 40.8982 66.5006 40.8982H69.3084C70.1951 40.8982 70.3429 41.3415 70.3429 41.9326V42.5238L69.1606 42.8193V41.9326H66.5006C66.3528 41.9326 66.3528 41.9326 66.3528 42.0804V44.4449C66.3528 44.5927 66.3528 44.5927 66.5006 44.5927H69.0128V43.706L70.1951 44.0016Z" fill="#0074A8"/>
<path d="M72.1162 43.7059C72.1162 43.1148 72.4118 42.6715 73.1507 42.6715H75.9585V41.9326C75.9585 41.7848 75.9585 41.7848 75.8107 41.7848H73.2984V42.2281L72.1162 42.0803V41.637C72.1162 41.0459 72.5596 40.6025 73.1507 40.6025H76.1063C76.8452 40.6025 77.1407 40.8981 77.1407 41.637V45.4793H73.1507C72.4118 45.4793 72.1162 45.1837 72.1162 44.4448V43.7059ZM73.2984 44.4448C73.2984 44.5926 73.2984 44.5926 73.4462 44.5926H75.9585V43.7059H73.4462C73.2984 43.7059 73.2984 43.7059 73.2984 43.8537V44.4448Z" fill="#0074A8"/>
<path d="M82.756 45.6271L81.2782 44.0016L79.9482 45.6271H78.6182L80.6871 43.2627L78.6182 40.8982H80.096L81.2782 42.376L82.4604 40.8982H83.7904L81.8693 43.1149L84.086 45.6271H82.756Z" fill="#0074A8"/>
<path d="M85.5645 43.7058C85.5645 43.1147 85.86 42.6714 86.5989 42.6714H89.4067V41.9325C89.4067 41.7847 89.4067 41.7847 89.2589 41.7847H86.7467V42.228H85.7122V41.7847C85.7122 41.1936 86.1556 40.7502 86.7467 40.7502H89.7023C90.4412 40.7502 90.7367 41.0458 90.7367 41.7847V45.627H86.7467C86.0078 45.627 85.7122 45.3314 85.7122 44.5925V43.7058H85.5645ZM86.7467 44.4447C86.7467 44.5925 86.7467 44.5925 86.8945 44.5925H89.4067V43.7058H86.8945C86.7467 43.7058 86.7467 43.7058 86.7467 43.8536V44.4447Z" fill="#0074A8"/>
<path d="M96.9428 40.8982C97.6817 40.8982 97.9773 41.3415 97.9773 42.0804V44.4449C97.9773 45.3316 97.534 45.4794 96.6473 45.4794H94.5784C94.135 45.4794 93.9872 45.4794 93.8395 45.3316V47.696L92.6572 47.9916V41.9326C92.6572 41.1938 92.9528 40.8982 93.6917 40.8982H96.9428ZM96.7951 42.0804C96.7951 41.9326 96.7951 41.9326 96.6473 41.9326H94.135C93.9872 41.9326 93.9872 41.9326 93.9872 42.0804V44.4449H94.135C94.2828 44.4449 94.2828 44.4449 94.4306 44.4449H96.6473C96.7951 44.4449 96.7951 44.4449 96.7951 44.2971V42.0804Z" fill="#0074A8"/>
<path d="M103.888 45.627V43.7058H101.081V45.627H99.8984V40.7502H101.081V42.5236H103.888V40.7502H105.071V45.627H103.888Z" fill="#0074A8"/>
<path d="M111.869 44.5925C111.869 45.1836 111.573 45.627 110.686 45.627H107.14V40.7502H108.322V42.3758H110.834C111.425 42.3758 111.869 42.6714 111.869 43.4103V44.5925ZM110.686 43.8536C110.686 43.7058 110.686 43.5581 110.391 43.5581H108.322V44.5925H110.391C110.686 44.5925 110.686 44.5925 110.686 44.297V43.8536ZM113.79 45.627H112.607V40.7502H113.79V45.627Z" fill="#0074A8"/>
<path d="M121.031 43.706H117.041V44.5927C117.041 44.7405 117.041 44.7405 117.189 44.7405H119.849V44.1493L121.031 44.2971V44.5927C121.031 45.036 120.884 45.6271 119.997 45.6271H117.041C116.302 45.6271 116.007 45.3316 116.007 44.5927V41.9326C116.007 41.046 116.302 40.8982 117.189 40.8982H120.145C121.031 40.8982 121.327 41.1938 121.327 41.9326V43.706H121.031ZM119.849 41.9326C119.849 41.7849 119.849 41.7849 119.701 41.7849H117.189C117.041 41.7849 117.041 41.7849 117.041 41.9326V42.6715H119.849V41.9326Z" fill="#0074A8"/>
<path d="M129.159 41.9326V45.7749H127.977V41.9326H126.056V40.8982H131.08V41.9326H129.159Z" fill="#0074A8"/>
<path d="M137.731 43.706H133.741V44.5927C133.741 44.7405 133.741 44.7405 133.888 44.7405H136.548V44.1493L137.731 44.2971V44.5927C137.731 45.036 137.583 45.6271 136.696 45.6271H133.741C133.002 45.6271 132.706 45.3316 132.706 44.5927V41.9326C132.706 41.046 133.002 40.8982 133.888 40.8982H136.844C137.731 40.8982 138.026 41.1938 138.026 41.9326V43.706H137.731ZM136.548 41.9326C136.548 41.7849 136.548 41.7849 136.401 41.7849H133.888C133.741 41.7849 133.741 41.7849 133.741 41.9326V42.6715H136.548V41.9326Z" fill="#0074A8"/>
<path d="M143.198 45.6271L141.721 44.0016L140.391 45.6271H139.061L141.129 43.2627L139.061 40.8982H140.538L141.721 42.376L142.903 40.8982H144.233L142.312 43.1149L144.528 45.6271H143.198Z" fill="#0074A8"/>
<path d="M149.996 45.627V43.7058H147.188V45.627H146.006V40.7502H147.188V42.5236H149.996V40.7502H151.178V45.627H149.996Z" fill="#0074A8"/>
<path d="M158.419 44.297C158.419 45.3314 158.124 45.627 157.089 45.627H154.577C153.543 45.627 153.247 45.3314 153.247 44.297V42.0803C153.247 41.0458 153.543 40.7502 154.577 40.7502H157.089C158.124 40.7502 158.419 41.0458 158.419 41.7847V44.297ZM154.429 44.4447C154.429 44.5925 154.429 44.5925 154.577 44.5925H157.089C157.237 44.5925 157.237 44.5925 157.237 44.4447V42.0803C157.237 41.9325 157.237 41.9325 157.089 41.9325H154.577C154.429 41.9325 154.429 41.9325 154.429 42.0803V44.4447Z" fill="#0074A8"/>
<path d="M162.262 40.7502H163.297L165.661 45.627H164.331L162.706 42.0803L161.08 45.627H159.75L162.262 40.7502Z" fill="#0074A8"/>
<path d="M172.163 44.297C172.163 45.3314 171.867 45.627 170.832 45.627H168.32C167.286 45.627 166.99 45.3314 166.99 44.297V42.0803C166.99 41.0458 167.286 40.7502 168.32 40.7502H170.832C171.867 40.7502 172.163 41.0458 172.163 41.7847V44.297ZM168.172 44.4447C168.172 44.5925 168.172 44.5925 168.32 44.5925H170.832C170.98 44.5925 170.98 44.5925 170.98 44.4447V42.0803C170.98 41.9325 170.98 41.9325 170.832 41.9325H168.32C168.172 41.9325 168.172 41.9325 168.172 42.0803V44.4447Z" fill="#0074A8"/>
<path d="M178.517 40.8982V41.9326H175.414V45.7749H174.231V40.8982H178.517Z" fill="#0074A8"/>
<path d="M179.995 45.627V40.7502H181.177V43.8536L183.985 40.7502H185.02V45.627H183.837V42.5236L181.03 45.627H179.995Z" fill="#0074A8"/>
<path d="M187.236 45.627V40.7502H188.419V43.8536L191.226 40.7502H192.261V45.627H191.079V42.5236L188.271 45.627H187.236Z" fill="#0074A8"/>
<path d="M102.558 30.9967H91.9181V33.2134C91.9181 33.509 92.0659 33.6567 92.3615 33.6567H99.3071V32.179L102.41 32.6223V33.509C102.41 34.839 101.967 36.169 99.4549 36.169H91.6226C89.5537 36.169 88.667 35.2823 88.667 33.3612V26.2678C88.667 24.0511 89.5537 23.46 91.7704 23.46H99.4549C101.672 23.46 102.41 24.1989 102.41 26.2678V30.9967H102.558ZM99.4549 26.5633C99.4549 26.2678 99.3071 26.12 99.0116 26.12H92.5093C92.2137 26.12 92.0659 26.2678 92.0659 26.5633V28.4845H99.6027V26.5633H99.4549Z" fill="#3C3C3B"/>
<path d="M113.789 37.2034V35.1345H109.799C107.73 35.1345 106.844 34.3956 106.844 32.1789V27.5977C106.844 25.5288 107.583 24.6422 109.799 24.6422H113.789V22.5732H116.449V24.6422H120.587C122.804 24.6422 123.543 25.5288 123.543 27.5977V32.1789C123.543 34.3956 122.656 35.1345 120.587 35.1345H116.449V37.2034H113.789ZM110.39 27.3022C109.947 27.3022 109.947 27.45 109.947 27.7455V31.7356C109.947 32.1789 110.095 32.1789 110.39 32.1789H113.789V27.1544H110.39V27.3022ZM116.449 27.3022V32.3267H119.996C120.292 32.3267 120.439 32.1789 120.439 31.8834V27.8933C120.439 27.45 120.292 27.45 119.996 27.45H116.449V27.3022Z" fill="#3C3C3B"/>
<path d="M141.572 32.7701C141.572 35.7257 140.833 36.3168 138.025 36.3168H131.227C128.272 36.3168 127.681 35.5779 127.681 32.7701V27.0067C127.681 24.1989 128.272 23.46 131.227 23.46H137.877C140.537 23.46 141.424 24.0511 141.424 26.2678V32.7701H141.572ZM130.784 32.9178C130.784 33.3612 130.932 33.3612 131.227 33.3612H137.877C138.321 33.3612 138.321 33.2134 138.321 32.9178V26.7111C138.321 26.2678 138.173 26.2678 137.877 26.2678H131.227C130.784 26.2678 130.784 26.4156 130.784 26.7111V32.9178Z" fill="#3C3C3B"/>
<path d="M152.803 26.2678V36.3168H149.7V26.2678H144.527V23.46H157.975V26.2678H152.803Z" fill="#3C3C3B"/>
<path d="M174.674 30.9967H164.034V33.2134C164.034 33.509 164.182 33.6567 164.478 33.6567H171.423V32.179L174.527 32.6223V33.509C174.527 34.839 174.083 36.169 171.571 36.169H163.739C161.67 36.169 160.783 35.2823 160.783 33.3612V26.2678C160.783 24.0511 161.67 23.46 163.887 23.46H171.571C173.788 23.46 174.527 24.1989 174.527 26.2678V30.9967H174.674ZM171.571 26.5633C171.571 26.2678 171.423 26.12 171.128 26.12H164.625C164.33 26.12 164.182 26.2678 164.182 26.5633V28.4845H171.719V26.5633H171.571Z" fill="#3C3C3B"/>
<path d="M188.566 36.169L182.212 30.5534V36.169H179.108V23.46H182.212V28.6322L188.123 23.46H192.261L185.315 29.5189L193 36.3168H188.566V36.169Z" fill="#3C3C3B"/>
<path d="M65.7617 32.6225L73.0029 18.2878H75.6629L82.6085 32.6225H83.9385V36.7603H81.2785V35.4303H67.0917V36.7603H64.4316V32.6225H65.7617ZM79.0618 32.6225L74.1851 21.8346L69.1606 32.6225H79.0618Z" fill="#3C3C3B"/>
<path d="M21.7235 58.0403C20.5412 58.0403 19.2112 57.4492 18.4723 56.4148L1.62545 33.2134C0.590995 31.7356 0.590995 29.9622 1.62545 28.4844L18.4723 5.43084C19.5068 3.95304 21.4279 3.36192 23.2013 4.10082L50.5405 14.5932C52.0183 15.1843 53.0527 16.6621 53.0527 18.2877V44.0013C53.0527 45.6269 52.0183 47.1047 50.3927 47.6958L23.0535 57.7448C22.6101 57.8926 22.1668 58.0403 21.7235 58.0403ZM21.7235 6.61307C21.2801 6.61307 20.9846 6.76085 20.689 7.05641L3.98992 30.11C3.69437 30.5534 3.69437 31.1445 3.98992 31.5878L20.689 54.6414C20.9846 55.0848 21.5757 55.2325 22.1668 55.0848L49.506 45.0357C49.9494 44.888 50.2449 44.4446 50.2449 43.8535V18.2877C50.2449 17.8443 49.9494 17.2532 49.506 17.1054L22.1668 6.61307C22.019 6.61307 21.8712 6.61307 21.7235 6.61307Z" fill="#3C3C3B"/>
<path d="M27.6348 62.4738C26.8959 62.4738 26.3048 62.326 25.5659 61.8827L1.92113 48.287C0.738898 47.5481 0 46.3658 0 44.888V17.5488C0 16.071 0.738898 14.741 2.06891 14.1499L25.7136 0.554173C26.8959 -0.184724 28.5215 -0.184724 29.7037 0.554173L53.3484 14.1499C54.5306 14.8888 55.4173 16.2188 55.4173 17.5488V44.888C55.4173 46.3658 54.6784 47.6958 53.3484 48.287L29.5559 62.0305C28.9648 62.326 28.3737 62.4738 27.6348 62.4738ZM27.6348 2.77087C27.487 2.77087 27.1914 2.77087 27.0437 2.91865L3.39893 16.5144C2.95559 16.6621 2.80781 17.1055 2.80781 17.5488V44.888C2.80781 45.3314 3.10337 45.7747 3.39893 45.9225L27.0437 59.5182C27.487 59.666 27.9303 59.666 28.2259 59.5182L51.8706 45.9225C52.314 45.7747 52.4617 45.3314 52.4617 44.888V17.5488C52.4617 17.1055 52.1662 16.6621 51.8706 16.5144L28.2259 2.91865C28.0781 2.77087 27.7826 2.77087 27.6348 2.77087Z" fill="#3C3C3B"/>
<path opacity="0.6" d="M22.6107 11.7854L8.42383 31.2923L34.1375 35.1346L22.6107 11.7854Z" fill="#76CBF3"/>
<path opacity="0.6" d="M45.5165 20.5044L8.42383 31.2923L22.6107 50.7992L45.5165 20.5044Z" fill="#76CBF3"/>
<path opacity="0.6" d="M34.1372 16.071L22.6104 50.7992L45.5162 42.228L34.1372 16.071Z" fill="#76CBF3"/>
<path opacity="0.6" d="M14.9258 40.7502L22.6103 11.7854L45.5161 20.5044L14.9258 40.7502Z" fill="#76CBF3"/>
<path opacity="0.6" d="M45.5165 20.5044V42.228L8.42383 31.2923L45.5165 20.5044Z" fill="#76CBF3"/>
</svg>
