<svg width="37" height="42" viewBox="0 0 37 42" fill="none" xmlns="http://www.w3.org/2000/svg">
<path d="M15.0049 38.0594C14.6321 38.0597 14.2646 37.9719 13.9321 37.8033C13.5997 37.6347 13.3117 37.39 13.0917 37.0891L0.473196 21.722C0.170973 21.3187 0.00577594 20.8292 0.00178311 20.3252C-0.00220973 19.8213 0.155211 19.3292 0.451006 18.9212L13.1031 3.51087C13.4099 3.10074 13.8421 2.80189 14.3342 2.65967C14.8262 2.51745 15.3512 2.53962 15.8295 2.72282L34.0166 9.66782C34.4618 9.83974 34.8447 10.1419 35.1154 10.5349C35.3861 10.9279 35.532 11.3935 35.5339 11.8707V29.0292C35.5328 29.5116 35.3841 29.9822 35.1078 30.3778C34.8316 30.7733 34.441 31.0749 33.9884 31.2422L15.8115 37.9161C15.5532 38.0109 15.2801 38.0594 15.0049 38.0594ZM14.9899 3.79635C14.8113 3.79624 14.6353 3.83835 14.4762 3.91923C14.317 4.00011 14.1792 4.11748 14.0741 4.26175L1.42201 19.672C1.29005 19.8639 1.22126 20.0922 1.22524 20.3251C1.22921 20.5579 1.30576 20.7837 1.4442 20.971L14.0627 36.3382C14.2066 36.5444 14.4142 36.6977 14.6536 36.7745C14.8931 36.8513 15.1511 36.8474 15.3881 36.7634L33.565 30.0895C33.7819 30.0094 33.969 29.8649 34.1014 29.6754C34.2338 29.4858 34.3051 29.2604 34.3057 29.0292V11.8706C34.3049 11.642 34.235 11.419 34.1053 11.2308C33.9756 11.0426 33.7921 10.8979 33.5788 10.8157L15.3917 3.87072C15.2635 3.82152 15.1273 3.79631 14.9899 3.79635H14.9899Z" fill="#EDEDED"/>
<path d="M18.1013 41.0707C17.6875 41.0711 17.2808 40.9625 16.9222 40.7559L1.17909 31.6669C0.821024 31.4594 0.523674 31.1617 0.316762 30.8033C0.10985 30.4449 0.000623778 30.0385 0 29.6247L0 11.446C0.000799574 11.0324 0.110041 10.6262 0.316827 10.268C0.523613 9.90978 0.820714 9.61205 1.17849 9.40451L16.9222 0.314857C17.281 0.108567 17.6875 0 18.1013 0C18.5151 0 18.9217 0.108567 19.2804 0.314857L35.0236 9.40391C35.3814 9.61158 35.6785 9.90942 35.8852 10.2677C36.092 10.626 36.2013 11.0323 36.202 11.446V29.6247C36.2014 30.0384 36.0922 30.4448 35.8854 30.8031C35.6787 31.1614 35.3815 31.4593 35.0236 31.6668L19.2804 40.7558C18.9218 40.9625 18.5152 41.0711 18.1013 41.0707V41.0707ZM18.1013 1.22767C17.903 1.22752 17.7081 1.27965 17.5363 1.3788L1.79322 10.4678C1.62175 10.5673 1.47934 10.7099 1.3802 10.8815C1.28106 11.0532 1.22866 11.2478 1.22822 11.446V29.6247C1.22851 29.8229 1.28085 30.0176 1.38 30.1893C1.47916 30.361 1.62165 30.5036 1.79322 30.6029L17.5364 39.6919C17.7082 39.7909 17.903 39.843 18.1013 39.843C18.2996 39.843 18.4945 39.7909 18.6663 39.6919L34.4094 30.6029C34.5808 30.5034 34.7232 30.3608 34.8222 30.1891C34.9212 30.0175 34.9735 29.8229 34.9738 29.6247V11.446C34.9734 11.2477 34.921 11.053 34.8218 10.8813C34.7227 10.7095 34.5803 10.5668 34.4088 10.4672L18.6663 1.3788C18.4945 1.27966 18.2997 1.22753 18.1013 1.22767V1.22767Z" fill="#EDEDED"/>
<path opacity="0.61" d="M15.524 7.319L6.08197 20.314L23.162 22.921L15.524 7.319Z" fill="#76CCF4"/>
<path opacity="0.53" d="M30.801 13.153L6.08197 20.314L15.524 33.31L30.801 13.153Z" fill="#76CCF4"/>
<path opacity="0.39" d="M23.162 10.211L15.524 33.31L30.747 27.656L23.162 10.211Z" fill="#76CCF4"/>
<path opacity="0.46" d="M10.379 26.613L15.524 7.319L30.801 13.153L10.379 26.613Z" fill="#76CCF4"/>
<path opacity="0.6" d="M30.801 13.153L30.747 27.656L6.08197 20.314L30.801 13.153Z" fill="#76CCF4"/>
</svg>
