<svg width="56" height="63" viewBox="0 0 56 63" fill="none" xmlns="http://www.w3.org/2000/svg">
<path d="M21.7235 58.0404C20.5412 58.0404 19.2112 57.4492 18.4723 56.4148L1.62545 33.2134C0.590995 31.7356 0.590995 29.9623 1.62545 28.4845L18.4723 5.43085C19.5068 3.95306 21.4279 3.36194 23.2013 4.10084L50.5405 14.5932C52.0183 15.1843 53.0527 16.6621 53.0527 18.2877V44.0013C53.0527 45.6269 52.0183 47.1047 50.3927 47.6958L23.0535 57.7448C22.6101 57.8926 22.1668 58.0404 21.7235 58.0404ZM21.7235 6.61309C21.2801 6.61309 20.9846 6.76087 20.689 7.05643L3.98992 30.11C3.69437 30.5534 3.69437 31.1445 3.98992 31.5878L20.689 54.6414C20.9846 55.0848 21.5757 55.2326 22.1668 55.0848L49.506 45.0358C49.9494 44.888 50.2449 44.4446 50.2449 43.8535V18.2877C50.2449 17.8443 49.9494 17.2532 49.506 17.1054L22.1668 6.61309C22.019 6.61309 21.8712 6.61309 21.7235 6.61309Z" fill="#3C3C3B"/>
<path d="M27.6348 62.4738C26.8959 62.4738 26.3048 62.326 25.5659 61.8827L1.92113 48.287C0.738898 47.5481 0 46.3658 0 44.888V17.5488C0 16.071 0.738898 14.741 2.06891 14.1499L25.7136 0.554173C26.8959 -0.184724 28.5215 -0.184724 29.7037 0.554173L53.3484 14.1499C54.5306 14.8888 55.4173 16.2188 55.4173 17.5488V44.888C55.4173 46.3658 54.6784 47.6958 53.3484 48.287L29.5559 62.0305C28.9648 62.326 28.3737 62.4738 27.6348 62.4738ZM27.6348 2.77087C27.487 2.77087 27.1914 2.77087 27.0437 2.91865L3.39893 16.5144C2.95559 16.6621 2.80781 17.1055 2.80781 17.5488V44.888C2.80781 45.3314 3.10337 45.7747 3.39893 45.9225L27.0437 59.5182C27.487 59.666 27.9303 59.666 28.2259 59.5182L51.8706 45.9225C52.314 45.7747 52.4617 45.3314 52.4617 44.888V17.5488C52.4617 17.1055 52.1662 16.6621 51.8706 16.5144L28.2259 2.91865C28.0781 2.77087 27.7826 2.77087 27.6348 2.77087Z" fill="#3C3C3B"/>
<path opacity="0.6" d="M22.6107 11.7854L8.42383 31.2923L34.1375 35.1346L22.6107 11.7854Z" fill="#76CBF3"/>
<path opacity="0.6" d="M45.5165 20.5044L8.42383 31.2924L22.6107 50.7993L45.5165 20.5044Z" fill="#76CBF3"/>
<path opacity="0.6" d="M34.1381 16.071L22.6113 50.7992L45.5172 42.228L34.1381 16.071Z" fill="#76CBF3"/>
<path opacity="0.6" d="M14.9258 40.7502L22.6103 11.7854L45.5161 20.5044L14.9258 40.7502Z" fill="#76CBF3"/>
<path opacity="0.6" d="M45.5165 20.5044V42.228L8.42383 31.2924L45.5165 20.5044Z" fill="#76CBF3"/>
</svg>
