<svg width="35" height="34" viewBox="0 0 35 34" fill="none" xmlns="http://www.w3.org/2000/svg">
<g clip-path="url(#clip0)">
<path d="M25.0748 8.30901L19.1788 8.30915C18.8185 8.30887 18.502 8.62538 18.5022 8.98576L18.5021 9.49971C18.5024 9.87251 18.8176 10.1878 19.1906 10.1879L22.5449 10.1995L10.266 22.4785L10.2548 19.1079C10.2547 18.7347 9.94521 18.4252 9.57199 18.4251L9.0557 18.4224C8.69477 18.4224 8.37702 18.7373 8.37729 19.0977L8.37619 24.9952C8.37633 25.1797 8.45001 25.3519 8.57915 25.4763C8.70843 25.6106 8.88117 25.6845 9.0655 25.6845L14.9613 25.6845C15.3221 25.6846 15.6382 25.3683 15.6381 25.0078L15.6379 24.4941C15.6379 24.1205 15.3493 23.8318 14.9759 23.8321L11.5511 23.8466L23.9269 11.4708L23.9121 14.9119C23.9118 15.0918 23.9753 15.2547 24.1032 15.3826C24.2311 15.5105 24.3972 15.5775 24.5775 15.5774L25.0894 15.5757C25.2698 15.5756 25.4385 15.504 25.5665 15.3759C25.6947 15.2478 25.7648 15.0778 25.7649 14.8974L25.7647 8.99887C25.7645 8.81495 25.6904 8.64207 25.5613 8.51762C25.432 8.3831 25.259 8.30915 25.0748 8.30901Z" fill="white"/>
</g>
<defs>
<clipPath id="clip0">
<rect x="0.103516" y="17.0005" width="24" height="24" transform="rotate(-45 0.103516 17.0005)" fill="white"/>
</clipPath>
</defs>
</svg>
