<svg width="38" height="39" viewBox="0 0 38 39" fill="none" xmlns="http://www.w3.org/2000/svg">
<g clip-path="url(#clip0)">
<path d="M4.36155 9.98569L5.9841 8.37595L4.23679 6.6425H10.9404V4.36595H4.23679L5.9841 2.63243L4.36155 1.02277L-0.155606 5.50419L4.36155 9.98569Z" fill="#3586DC"/>
<path d="M21.4841 3.60163C23.9485 3.60163 25.9535 5.59079 25.9535 8.03575V11.0487C27.1757 9.88018 27.9371 8.24073 27.9371 6.4238C27.9372 2.87602 25.0382 0 21.4622 0C17.8862 0 14.9873 2.87602 14.9873 6.4238C14.9873 8.26229 15.767 9.91903 17.0147 11.09V8.03568C17.0147 5.59071 19.0197 3.60163 21.4841 3.60163Z" fill="#3586DC"/>
<path d="M34.9396 17.5029C33.701 17.5029 32.6968 18.4992 32.6968 19.7281V18.2808C32.6968 17.0519 31.6926 16.0557 30.4539 16.0557C29.2153 16.0557 28.2111 17.0519 28.2111 18.2808V17.0621C28.2111 15.8332 27.2069 14.8369 25.9683 14.8369C24.7296 14.8369 23.7254 15.8332 23.7254 17.0621V8.03568C23.7254 6.8068 22.7212 5.81055 21.4826 5.81055C20.2439 5.81055 19.2397 6.8068 19.2397 8.03568V19.6572C17.2442 19.8154 15.6689 21.476 15.6689 23.4958V28.328L20.7407 34.6054L20.7118 39H33.6441L33.6653 34.5825L37.1825 29.1475V19.7281C37.1825 18.4991 36.1784 17.5029 34.9396 17.5029Z" fill="#3586DC"/>
</g>
<defs>
<clipPath id="clip0">
<rect width="38" height="39" fill="white"/>
</clipPath>
</defs>
</svg>
