<?xml version="1.0" encoding="utf-8"?>
<!-- Generator: Adobe Illustrator 21.1.0, SVG Export Plug-In . SVG Version: 6.00 Build 0)  -->
<svg version="1.1" id="Layer_1" xmlns="http://www.w3.org/2000/svg" xmlns:xlink="http://www.w3.org/1999/xlink" x="0px" y="0px"
	 viewBox="0 0 329.6 118.4" style="enable-background:new 0 0 329.6 118.4;" xml:space="preserve">
<style type="text/css">
	.st0{fill:#FFFFFF;}
	.st1{fill:#ADE0F7;}
	.st2{fill:#8CD3F4;}
	.st3{fill:#7ECEF3;}
	.st4{fill:#A4DCF6;}
	.st5{fill:#7ACCF2;}
	.st6{fill:#7FCEF3;}
	.st7{fill:#79CCF2;}
	.st8{fill:#79CCF1;}
	.st9{fill:#8AD2F4;}
</style>
<g>
	<path class="st0" d="M129.6,51c1.5,0.9,3.3,1.4,5.2,1.4c1.8,0,3.5-0.4,5-1.3s2.8-2.1,3.6-3.8s1.3-3.5,1.3-5.7
		c0-2.1-0.4-3.9-1.2-5.6c-0.8-1.6-2-2.9-3.5-3.8c-1.5-0.9-3.3-1.4-5.2-1.4c-2.9,0-5.3,1-7.2,2.9s-2.8,4.6-2.8,8.1
		c0,1.8,0.4,3.5,1.2,5.2S128.1,50.1,129.6,51z M129.8,35.3c1.4-1.3,3.1-2,5-2c1.4,0,2.6,0.3,3.7,1c1.1,0.7,1.9,1.7,2.5,2.9
		c0.6,1.3,0.9,2.7,0.9,4.4c0,2.7-0.7,4.7-2,6.2c-1.3,1.5-3,2.2-5.1,2.2c-2,0-3.7-0.7-5.1-2.2c-1.3-1.4-2-3.4-2-5.9
		C127.7,38.9,128.4,36.7,129.8,35.3z"/>
	<path class="st0" d="M160.5,48.9c0.7-1.1,1-2.6,1-4.3c0-2.3-0.6-4.1-1.9-5.5s-2.9-2-4.9-2c-1.1,0-2,0.2-2.9,0.7s-1.6,1.2-2.3,2.1
		c0-1.4,0.2-2.6,0.6-3.4c0.3-0.9,0.9-1.5,1.6-1.9c0.8-0.4,2.2-0.6,4.3-0.6c1.6,0,2.7-0.1,3.2-0.2c0.5-0.1,1-0.4,1.3-0.8
		c0.3-0.4,0.6-1.1,0.7-2.1l-2.3,0c-0.1,0.2-0.2,0.3-0.5,0.4s-1.2,0.1-3,0.1c-2.8,0-4.9,0.7-6.2,2.1c-1.3,1.4-2,4.1-2,8
		c0,3.2,0.3,5.4,0.8,6.7s1.3,2.3,2.3,3.1s2.4,1.2,4.2,1.2c1.5,0,2.8-0.3,3.6-0.9C159.1,50.9,159.9,50,160.5,48.9z M154.6,50.4
		c-1.2,0-2.3-0.5-3.1-1.4c-0.8-0.9-1.3-2.3-1.3-4c0-1.8,0.4-3.2,1.1-4.2c0.8-1.1,1.9-1.6,3.3-1.6c1.4,0,2.4,0.5,3.1,1.5
		c0.7,1,1.1,2.3,1.1,3.9c0,1.8-0.4,3.2-1.2,4.3C156.9,49.8,155.9,50.4,154.6,50.4z"/>
	<path class="st0" d="M166.4,52.1h6.4c2,0,3.4-0.4,4.5-1.3c1-0.8,1.5-1.9,1.5-3.3c0-1.3-0.5-2.4-1.6-3.3c-1-0.9-2.7-1.3-5-1.3H169
		V37h-6.7v2.1h4.2V52.1z M169,45h3c1.6,0,2.7,0.2,3.3,0.7c0.6,0.4,0.9,1,0.9,1.8c0,0.9-0.3,1.5-1,1.9s-1.8,0.6-3.5,0.6H169V45z"/>
	<path class="st0" d="M188.1,52.4c1.7,0,3.2-0.4,4.3-1.3s1.9-2,2.3-3.6l-2.6-0.3c-0.4,1.1-0.9,1.9-1.6,2.4s-1.5,0.7-2.4,0.7
		c-1.3,0-2.3-0.4-3.1-1.3c-0.8-0.9-1.3-2.1-1.4-3.8h11.2c0-0.3,0-0.5,0-0.7c0-2.5-0.6-4.4-1.9-5.8c-1.3-1.4-2.9-2.1-4.9-2.1
		c-2.1,0-3.8,0.7-5.1,2.1s-2,3.4-2,5.9c0,2.4,0.6,4.3,1.9,5.7C184.1,51.7,185.9,52.4,188.1,52.4z M185,40c0.8-0.8,1.8-1.2,3-1.2
		c1.3,0,2.3,0.5,3.2,1.5c0.5,0.6,0.8,1.6,1,2.8h-8.4C183.8,41.8,184.2,40.8,185,40z"/>
	<path class="st0" d="M197.4,52.1h11.8v4.3h2.1V50h-1.6V37h-10.5c0.1,6.2-0.8,10.5-2.6,12.9h-1.3v6.4h2.1V52.1z M201.4,39.1h5.8V50
		h-8.1C200.4,47.6,201.2,44,201.4,39.1z"/>
	<polygon class="st0" points="224,40.7 224,52.1 226.5,52.1 226.5,37 223.8,37 216.7,48.5 216.7,37 214.2,37 214.2,52.1 216.9,52.1 
			"/>
	<polygon class="st0" points="232.9,45.4 240,45.4 240,52.1 242.5,52.1 242.5,37 240,37 240,43.3 232.9,43.3 232.9,37 230.4,37 
		230.4,52.1 232.9,52.1 	"/>
	<path class="st0" d="M257,51.1c1.1-0.8,1.9-2,2.3-3.6l-2.6-0.3c-0.4,1.1-0.9,1.9-1.6,2.4c-0.7,0.5-1.5,0.7-2.4,0.7
		c-1.3,0-2.3-0.4-3.1-1.3c-0.8-0.9-1.3-2.1-1.4-3.8h11.2c0-0.3,0-0.5,0-0.7c0-2.5-0.6-4.4-1.9-5.8c-1.3-1.4-2.9-2.1-4.9-2.1
		c-2.1,0-3.8,0.7-5.1,2.1s-2,3.4-2,5.9c0,2.4,0.6,4.3,1.9,5.7c1.3,1.4,3,2,5.2,2C254.4,52.4,255.9,52,257,51.1z M249.6,40
		c0.8-0.8,1.8-1.2,3-1.2c1.3,0,2.3,0.5,3.2,1.5c0.5,0.6,0.8,1.6,1,2.8h-8.4C248.4,41.8,248.8,40.8,249.6,40z"/>
	<polygon class="st0" points="272.1,52.1 274.7,52.1 274.7,37 272.1,37 272.1,43.3 265.1,43.3 265.1,37 262.5,37 262.5,52.1 
		265.1,52.1 265.1,45.4 272.1,45.4 	"/>
	<polygon class="st0" points="288.1,43.3 281.1,43.3 281.1,37 278.5,37 278.5,52.1 281.1,52.1 281.1,45.4 288.1,45.4 288.1,52.1 
		290.7,52.1 290.7,37 288.1,37 	"/>
	<path class="st0" d="M305.2,44.1c-1.1-0.8-2.8-1.2-4.9-1.2h-3.2V37h-2.5v15h6.4c2.1,0,3.6-0.4,4.6-1.3c0.9-0.9,1.4-2,1.4-3.2
		C306.9,46.1,306.4,45,305.2,44.1z M303.3,49.4c-0.7,0.4-1.8,0.6-3.5,0.6h-2.7v-5h3c1.7,0,2.9,0.3,3.4,0.8s0.8,1.1,0.8,1.7
		C304.3,48.4,304,49,303.3,49.4z"/>
	<rect x="308.8" y="37" class="st0" width="2.5" height="15"/>
	<path class="st0" d="M328.4,44.5c0-2.5-0.6-4.4-1.9-5.8c-1.3-1.4-2.9-2.1-4.9-2.1c-2.1,0-3.8,0.7-5.1,2.1s-2,3.4-2,5.9
		c0,2.4,0.6,4.3,1.9,5.7c1.3,1.4,3,2,5.2,2c1.7,0,3.2-0.4,4.3-1.3c1.1-0.8,1.9-2,2.3-3.6l-2.6-0.3c-0.4,1.1-0.9,1.9-1.6,2.4
		c-0.7,0.5-1.5,0.7-2.4,0.7c-1.3,0-2.3-0.4-3.1-1.3c-0.8-0.9-1.3-2.1-1.4-3.8h11.2C328.4,44.9,328.4,44.7,328.4,44.5z M317.3,43.1
		c0.1-1.3,0.5-2.4,1.3-3.1c0.8-0.8,1.8-1.2,3-1.2c1.3,0,2.3,0.5,3.2,1.5c0.5,0.6,0.8,1.6,1,2.8H317.3z"/>
	<polygon class="st0" points="124.2,68.6 131,68.6 131,86.9 133.8,86.9 133.8,68.6 140.6,68.6 140.6,66.1 124.2,66.1 	"/>
	<path class="st0" d="M147.7,71.5c-2.1,0-3.8,0.7-5.1,2.1s-2,3.4-2,5.9c0,2.4,0.6,4.3,1.9,5.7c1.3,1.4,3,2,5.2,2
		c1.7,0,3.2-0.4,4.3-1.3s1.9-2,2.3-3.6l-2.6-0.3c-0.4,1.1-0.9,1.9-1.6,2.4s-1.5,0.7-2.4,0.7c-1.3,0-2.3-0.4-3.1-1.3
		c-0.8-0.9-1.3-2.1-1.4-3.8h11.2c0-0.3,0-0.5,0-0.7c0-2.5-0.6-4.4-1.9-5.8C151.3,72.2,149.7,71.5,147.7,71.5z M143.4,77.9
		c0.1-1.3,0.5-2.4,1.3-3.1c0.8-0.8,1.8-1.2,3-1.2c1.3,0,2.3,0.5,3.2,1.5c0.5,0.6,0.8,1.6,1,2.8H143.4z"/>
	<path class="st0" d="M169.3,71.8h-3l-2.5,3.6c-0.3,0.5-0.7,1-1.1,1.7c-0.3-0.5-0.6-1-1-1.7l-2.3-3.5h-3.2l5.1,7.2l-5.5,7.8h3.1
		l4-5.9l0.8,1.3l3.1,4.7h3.1l-5.6-8L169.3,71.8z"/>
	<polygon class="st0" points="181.9,78.1 174.8,78.1 174.8,71.8 172.3,71.8 172.3,86.9 174.8,86.9 174.8,80.2 181.9,80.2 
		181.9,86.9 184.4,86.9 184.4,71.8 181.9,71.8 	"/>
	<path class="st0" d="M194.7,71.5c-1.9,0-3.4,0.6-4.7,1.7c-1.5,1.3-2.3,3.4-2.3,6.2c0,2.5,0.6,4.5,1.9,5.8c1.3,1.4,3,2,5.1,2
		c1.3,0,2.5-0.3,3.6-0.9c1.1-0.6,2-1.5,2.5-2.6s0.9-2.6,0.9-4.6c0-2.4-0.7-4.3-2-5.6C198.5,72.2,196.8,71.5,194.7,71.5z M197.9,83.7
		c-0.8,1-1.9,1.4-3.2,1.4c-1.3,0-2.3-0.5-3.2-1.4s-1.3-2.4-1.3-4.3s0.4-3.4,1.3-4.3s1.9-1.4,3.2-1.4c1.3,0,2.3,0.5,3.2,1.4
		c0.8,1,1.3,2.4,1.3,4.2C199.2,81.2,198.7,82.7,197.9,83.7z"/>
	<path class="st0" d="M205.7,81.8c0,1.3,0,2.1-0.1,2.3c-0.1,0.2-0.2,0.4-0.5,0.5s-0.6,0.2-1.1,0.2h-1.1v2.1c0.8,0.1,1.5,0.1,2.1,0.1
		c1,0,1.7-0.2,2.2-0.6c0.5-0.4,0.8-0.9,0.9-1.5s0.2-1.7,0.2-3.5v-7.5h6.8v12.9h2.5v-15h-11.8V81.8z"/>
	<path class="st0" d="M228.2,71.5c-1.9,0-3.4,0.6-4.7,1.7c-1.5,1.3-2.3,3.4-2.3,6.2c0,2.5,0.6,4.5,1.9,5.8c1.3,1.4,3,2,5.1,2
		c1.3,0,2.5-0.3,3.6-0.9c1.1-0.6,2-1.5,2.5-2.6s0.9-2.6,0.9-4.6c0-2.4-0.7-4.3-2-5.6C232,72.2,230.3,71.5,228.2,71.5z M231.4,83.7
		c-0.8,1-1.9,1.4-3.2,1.4c-1.3,0-2.3-0.5-3.2-1.4c-0.8-1-1.3-2.4-1.3-4.3s0.4-3.4,1.3-4.3c0.8-1,1.9-1.4,3.2-1.4
		c1.3,0,2.3,0.5,3.2,1.4c0.8,1,1.3,2.4,1.3,4.2C232.6,81.2,232.2,82.7,231.4,83.7z"/>
	<polygon class="st0" points="238.6,86.9 241.2,86.9 241.2,73.9 247.3,73.9 247.3,71.8 238.6,71.8 	"/>
	<polygon class="st0" points="252.1,83.3 252.1,71.8 249.6,71.8 249.6,86.9 252.3,86.9 259.4,75.5 259.4,86.9 261.9,86.9 
		261.9,71.8 259.2,71.8 	"/>
	<polygon class="st0" points="268.7,83.3 268.7,71.8 266.2,71.8 266.2,86.9 268.9,86.9 276,75.5 276,86.9 278.5,86.9 278.5,71.8 
		275.8,71.8 	"/>
</g>
<g>
	<path class="st0" d="M100.7,27.3L54.9,0.8c-2-1.1-4.4-1.1-6.3,0L2.8,27.3c-1.7,1-2.8,2.8-2.8,4.8v54.2c0,2,1.1,3.8,2.8,4.8
		l45.8,26.5c1,0.6,2.1,0.9,3.2,0.9c1.1,0,2.2-0.3,3.2-0.9l45.8-26.5c1.7-1,2.8-2.8,2.8-4.8V32.1C103.5,30.1,102.4,28.3,100.7,27.3z
		 M50.6,4.3C50.9,4.1,51.3,4,51.8,4s0.8,0.1,1.2,0.3l41.6,24L43.1,8.6L50.6,4.3z M4,32.1c0-0.5,0.3-1.1,0.8-1.3l26.3-15.2L4,51.8
		V32.1z M4.8,87.6C4.3,87.3,4,86.8,4,86.3V64.1l27.6,39L4.8,87.6z M37.5,104.5L5.3,59c-0.5-0.7-0.5-1.5,0-2.2l32.9-44.1
		c0.4-0.6,1.1-0.9,1.7-0.9c0.3,0,0.5,0,0.8,0.2L96,33.2v51.5l-53.9,21.1C40.4,106.5,38.5,106,37.5,104.5z M52.9,114.1
		c-0.7,0.4-1.6,0.4-2.3,0l-7.5-4.3c0.2,0,0.3-0.1,0.5-0.2l53.5-21L52.9,114.1z"/>
	<polygon class="st1" points="42,96.3 86,80.3 60.3,72.6 	"/>
	<polygon class="st1" points="59,46.9 64.6,30.8 42.5,22.1 55,48 	"/>
	<polygon class="st1" points="70.2,43.8 86,39.3 64.6,30.8 	"/>
	<polygon class="st1" points="42.4,67.3 27.8,76.6 42,96.3 51.1,69.9 	"/>
	<polygon class="st1" points="42.5,22.1 15.3,59.2 33.9,54 	"/>
	<polygon class="st1" points="15.3,59.2 27.8,76.6 31.2,64 	"/>
	<polygon class="st1" points="86,80.3 86,39.3 74.6,54.1 	"/>
	<polygon class="st2" points="70.2,43.8 64.6,30.8 59,46.9 	"/>
	<polygon class="st2" points="51.1,69.9 42,96.3 60.3,72.6 	"/>
	<polygon class="st2" points="64.3,67.5 60.3,72.6 86,80.3 74.6,54.1 	"/>
	<polygon class="st2" points="74.6,54.1 86,39.3 72.1,48.2 	"/>
	<polygon class="st3" points="64.3,67.5 74.6,54.1 72.1,48.2 59,56.6 	"/>
	<polygon class="st4" points="31.8,62 15.3,59.2 31.2,64 	"/>
	<polygon class="st3" points="52.6,65.5 49.5,65 49.5,65 47.8,63.8 46.7,64.5 45.5,65.3 52.1,66.9 	"/>
	<polygon class="st2" points="55,48 42.5,22.1 33.9,54 	"/>
	<polygon class="st2" points="31.2,64 27.8,76.6 42.4,67.3 	"/>
	<polygon class="st5" points="59,46.9 55,48 57.1,52.5 	"/>
	<polygon class="st3" points="72.1,48.2 86,39.3 70.2,43.8 	"/>
	<polygon class="st3" points="33.9,54 15.3,59.2 31.8,62 	"/>
	<polygon class="st2" points="52.1,66.9 45.5,65.3 43.7,66.4 42.4,67.3 51.1,69.9 51.3,69.3 	"/>
	<polygon class="st6" points="52.6,65.5 52.1,66.9 51.3,69.3 51.1,69.9 60.3,72.6 64.3,67.5 52.6,65.5 	"/>
	<polygon class="st7" points="57.1,52.5 55,48 33.9,54 31.8,62 45.5,65.3 46.7,64.5 47.8,63.8 54.7,59.4 59,56.6 72.1,48.2 
		70.2,43.8 59,46.9 	"/>
	<polygon class="st8" points="54.7,59.4 52.6,65.5 52.6,65.5 64.3,67.5 59,56.6 	"/>
	<polygon class="st6" points="49.5,65 52.6,65.5 54.7,59.4 47.8,63.8 49.5,65 	"/>
	<polygon class="st9" points="45.5,65.3 31.8,62 31.2,64 42.4,67.3 43.7,66.4 	"/>
</g>
</svg>
