<svg width="16" height="16" viewBox="0 0 16 16" fill="none" xmlns="http://www.w3.org/2000/svg">
<path d="M11.9355 15.7443L12.4633 15.2202C12.6281 15.0552 12.7189 14.8358 12.7189 14.6012C12.7189 14.3668 12.6281 14.1471 12.4633 13.9822L6.48444 8.00358L12.4699 2.0181C12.6347 1.85341 12.7254 1.6337 12.7254 1.3993C12.7254 1.16489 12.6347 0.945048 12.4699 0.780234L11.9454 0.256002C11.6044 -0.085334 11.0488 -0.085334 10.7077 0.256002L3.55564 7.38243C3.39095 7.54712 3.27492 7.76657 3.27492 8.00306V8.00579C3.27492 8.24033 3.39108 8.45978 3.55564 8.62446L10.6883 15.7443C10.853 15.9092 11.0791 15.9997 11.3135 16C11.548 16 11.771 15.9092 11.9355 15.7443Z" fill="#56A9F6"/>
</svg>
